<?xml version="1.0" standalone="no"?>
<!DOCTYPE svg PUBLIC "-//W3C//DTD SVG 20010904//EN"
 "http://www.w3.org/TR/2001/REC-SVG-20010904/DTD/svg10.dtd">
<svg version="1.0" xmlns="http://www.w3.org/2000/svg"
 width="2896.000000pt" height="2158.000000pt" viewBox="0 0 2896.000000 2158.000000"
 preserveAspectRatio="xMidYMid meet">
<metadata>
Created by potrace 1.16, written by Peter Selinger 2001-2019
</metadata>
<g transform="translate(0.000000,2158.000000) scale(0.100000,-0.100000)"
fill="#000000" stroke="none">
<path d="M3940 20225 l0 -185 25 0 c25 0 25 1 25 85 l0 85 85 0 c78 0 85 2 85
20 0 18 -7 20 -85 20 l-85 0 0 55 0 54 98 3 c92 3 97 4 100 26 3 22 2 22 -122
22 l-126 0 0 -185z"/>
<path d="M4240 20385 c0 -20 5 -25 25 -25 20 0 25 5 25 25 0 20 -5 25 -25 25
-20 0 -25 -5 -25 -25z"/>
<path d="M5460 20385 c0 -20 5 -25 25 -25 20 0 25 5 25 25 0 20 -5 25 -25 25
-20 0 -25 -5 -25 -25z"/>
<path d="M5860 20225 l0 -185 25 0 25 0 0 185 0 185 -25 0 -25 0 0 -185z"/>
<path d="M6130 20225 l0 -185 25 0 25 0 0 185 0 185 -25 0 -25 0 0 -185z"/>
<path d="M6940 20385 c0 -20 5 -25 25 -25 20 0 25 5 25 25 0 20 -5 25 -25 25
-20 0 -25 -5 -25 -25z"/>
<path d="M7620 20385 c0 -20 5 -25 25 -25 20 0 25 5 25 25 0 20 -5 25 -25 25
-20 0 -25 -5 -25 -25z"/>
<path d="M17716 20278 c65 -248 62 -240 91 -236 25 3 29 11 68 153 49 172 42
174 96 -27 32 -121 35 -128 59 -128 24 0 27 7 73 173 26 95 47 178 47 185 0 7
-10 12 -23 12 -21 0 -26 -10 -57 -140 -19 -77 -38 -140 -42 -140 -4 0 -8 8 -8
18 0 9 -15 71 -34 137 l-33 120 -33 0 -33 0 -41 -144 c-26 -95 -42 -137 -46
-125 -4 10 -20 76 -35 147 -29 124 -30 127 -56 127 l-28 0 35 -132z"/>
<path d="M18460 20225 c0 -178 1 -185 20 -185 19 0 20 7 20 185 0 178 -1 185
-20 185 -19 0 -20 -7 -20 -185z"/>
<path d="M18570 20225 l0 -185 25 0 25 0 0 185 0 185 -25 0 -25 0 0 -185z"/>
<path d="M23520 20225 l0 -185 116 0 c114 0 115 0 112 23 -3 21 -8 22 -90 25
l-88 3 0 159 0 160 -25 0 -25 0 0 -185z"/>
<path d="M24250 20350 c0 -60 -6 -70 -27 -49 -14 14 -75 14 -102 0 -70 -38
-73 -201 -5 -246 27 -17 86 -20 115 -5 13 7 19 7 19 0 0 -5 11 -10 25 -10 l25
0 0 185 0 185 -25 0 c-24 0 -25 -3 -25 -60z m-21 -106 c46 -58 14 -164 -49
-164 -39 0 -63 38 -63 95 0 87 66 128 112 69z"/>
<path d="M25250 20225 l0 -185 25 0 24 0 3 138 3 137 93 -137 c77 -115 96
-138 117 -138 l25 0 0 185 0 185 -25 0 -25 0 0 -137 0 -138 -92 138 c-81 123
-94 137 -119 137 l-29 0 0 -185z"/>
<path d="M26070 20350 c0 -60 -6 -70 -27 -49 -14 14 -75 14 -102 0 -70 -38
-73 -201 -5 -246 27 -17 86 -20 115 -5 13 7 19 7 19 0 0 -5 11 -10 25 -10 l25
0 0 185 0 185 -25 0 c-24 0 -25 -3 -25 -60z m-21 -106 c46 -58 14 -164 -49
-164 -39 0 -63 38 -63 95 0 87 66 128 112 69z"/>
<path d="M6828 20389 c-12 -7 -18 -22 -18 -44 0 -28 -4 -35 -20 -35 -13 0 -20
-7 -20 -20 0 -13 7 -20 20 -20 19 0 20 -7 20 -103 0 -114 6 -127 57 -127 25 0
33 4 33 18 0 9 -10 22 -22 27 -21 9 -23 18 -26 98 l-3 87 26 0 c18 0 25 5 25
20 0 15 -7 20 -24 20 -22 0 -25 5 -28 44 -3 39 -5 44 -20 35z"/>
<path d="M7078 20386 c-11 -8 -18 -26 -18 -45 0 -21 -5 -31 -15 -31 -8 0 -15
-9 -15 -20 0 -11 7 -20 15 -20 12 0 15 -18 15 -99 0 -113 9 -131 66 -131 41 0
47 26 9 40 -24 9 -25 13 -25 100 0 83 1 90 20 90 13 0 20 7 20 20 0 13 -7 20
-20 20 -17 0 -20 7 -20 45 0 48 -5 52 -32 31z"/>
<path d="M7508 20389 c-12 -6 -18 -22 -18 -44 0 -24 -5 -35 -15 -35 -8 0 -15
-9 -15 -20 0 -11 7 -20 15 -20 12 0 15 -18 15 -103 0 -67 4 -107 12 -115 13
-13 88 -17 88 -4 0 13 -15 28 -32 35 -15 5 -18 20 -18 97 0 83 1 90 20 90 13
0 20 7 20 20 0 13 -7 20 -20 20 -17 0 -20 7 -20 45 0 47 -4 51 -32 34z"/>
<path d="M18998 20389 c-12 -6 -18 -22 -18 -44 0 -24 -5 -35 -15 -35 -8 0 -15
-9 -15 -20 0 -11 7 -20 15 -20 12 0 15 -18 15 -103 0 -67 4 -107 12 -115 13
-13 88 -17 88 -4 0 13 -15 28 -32 35 -15 5 -18 20 -18 97 0 83 1 90 20 90 13
0 20 7 20 20 0 13 -7 20 -20 20 -17 0 -20 7 -20 45 0 47 -4 51 -32 34z"/>
<path d="M4455 20313 c-11 -3 -28 -12 -37 -21 -16 -14 -18 -14 -18 1 0 11 -8
17 -25 17 l-26 0 3 -132 c3 -127 4 -133 25 -136 20 -3 21 1 25 91 3 106 19
137 68 137 43 0 53 -22 58 -130 4 -89 7 -100 23 -100 17 0 19 9 19 115 0 102
-2 117 -20 135 -11 11 -26 20 -34 20 -8 0 -20 2 -28 4 -7 2 -22 1 -33 -1z"/>
<path d="M4725 20313 c-45 -9 -73 -26 -84 -49 -15 -33 -15 -34 14 -34 14 0 29
8 35 20 8 15 21 20 48 20 42 0 56 -7 65 -33 8 -21 -16 -33 -87 -42 -87 -12
-123 -78 -71 -130 19 -20 34 -25 72 -25 28 0 58 7 71 16 20 14 23 14 28 0 3
-9 17 -16 31 -16 20 0 24 4 18 18 -3 9 -9 55 -11 102 -7 110 -11 128 -32 138
-23 12 -73 20 -97 15z m80 -170 c-11 -48 -41 -68 -97 -64 -10 0 -22 9 -27 20
-15 28 7 50 59 60 73 14 73 14 65 -16z"/>
<path d="M5007 20305 c-20 -7 -40 -9 -43 -4 -3 5 -14 9 -25 9 -18 0 -19 -8
-19 -135 l0 -135 25 0 c25 0 25 0 25 95 0 107 14 135 68 135 46 0 52 -15 52
-127 l0 -103 25 0 25 0 0 109 c0 100 -2 112 -22 134 -29 32 -64 39 -111 22z"/>
<path d="M5305 20314 c-5 -1 -22 -5 -37 -8 -77 -17 -99 -176 -33 -242 36 -36
114 -34 154 4 16 15 32 37 36 50 10 36 -36 30 -57 -8 -23 -41 -79 -43 -104 -4
-22 33 -22 105 0 139 14 21 24 26 53 23 32 -3 41 -9 60 -46 4 -9 43 11 43 21
-1 36 -74 81 -115 71z"/>
<path d="M5653 20313 c-35 -5 -83 -44 -83 -68 0 -22 43 -19 58 5 14 23 80 28
100 8 24 -24 14 -47 -25 -53 -111 -19 -143 -41 -143 -95 0 -45 33 -70 93 -70
30 0 62 6 74 15 19 13 22 13 27 0 3 -8 17 -15 30 -15 23 0 25 2 16 26 -6 14
-10 66 -10 115 0 76 -3 92 -20 109 -11 11 -29 20 -39 20 -11 0 -25 2 -33 3 -7
2 -27 2 -45 0z m87 -164 c0 -33 -17 -56 -51 -68 -26 -9 -37 -8 -56 4 -54 35
-16 67 100 84 4 1 7 -8 7 -20z"/>
<path d="M6360 20312 c-14 -2 -33 -11 -42 -19 -16 -15 -18 -15 -18 0 0 10 -8
17 -20 17 -19 0 -20 -7 -20 -136 0 -135 0 -135 23 -132 21 3 22 8 25 98 3 105
15 130 63 130 46 0 59 -31 59 -137 0 -93 0 -93 25 -93 25 0 25 1 25 88 0 88
-13 156 -31 167 -19 12 -64 21 -89 17z"/>
<path d="M6600 20309 c-59 -13 -88 -70 -55 -112 7 -10 42 -27 76 -38 69 -22
83 -34 68 -61 -16 -29 -84 -25 -105 7 -20 31 -54 34 -54 5 0 -12 11 -32 25
-45 20 -21 34 -25 80 -25 49 0 60 4 86 29 54 55 28 103 -72 135 -50 17 -64 25
-64 41 0 16 8 21 42 23 33 2 44 -1 56 -18 19 -28 58 -20 50 10 -11 40 -71 62
-133 49z"/>
<path d="M7812 20309 c-66 -14 -98 -72 -89 -162 3 -41 11 -56 36 -79 58 -52
168 -31 197 37 26 62 12 150 -29 183 -23 20 -77 29 -115 21z m83 -59 c27 -30
30 -99 6 -137 -27 -44 -79 -46 -110 -7 -48 61 -14 164 53 164 20 0 40 -8 51
-20z"/>
<path d="M8116 20309 c-15 -4 -34 -13 -42 -20 -11 -9 -14 -8 -14 5 0 9 -8 16
-20 16 -19 0 -20 -7 -20 -135 l0 -135 25 0 c25 0 25 0 25 95 0 82 3 98 20 115
24 24 63 26 84 4 12 -12 16 -38 16 -115 l0 -99 26 0 26 0 -4 114 c-2 93 -6
118 -21 134 -21 23 -61 31 -101 21z"/>
<path d="M18253 20313 c-35 -5 -83 -44 -83 -68 0 -22 43 -19 58 5 14 23 80 28
100 8 24 -24 14 -47 -25 -53 -111 -19 -143 -41 -143 -95 0 -45 33 -70 93 -70
30 0 62 6 74 15 19 13 22 13 27 0 3 -8 17 -15 30 -15 23 0 25 2 16 26 -6 14
-10 66 -10 115 0 76 -3 92 -20 109 -11 11 -29 20 -39 20 -11 0 -25 2 -33 3 -7
2 -27 2 -45 0z m87 -164 c0 -33 -17 -56 -51 -68 -26 -9 -37 -8 -56 4 -54 35
-16 67 100 84 4 1 7 -8 7 -20z"/>
<path d="M18763 20310 c-42 -9 -63 -27 -80 -67 -27 -65 -9 -154 38 -187 15
-10 44 -16 77 -16 46 0 58 4 83 29 16 16 29 37 29 45 0 25 -40 19 -62 -9 -36
-46 -104 -29 -122 33 -7 22 -6 22 95 22 l102 0 -7 41 c-9 53 -40 97 -74 105
-15 3 -31 7 -37 8 -5 1 -25 -1 -42 -4z m79 -57 c10 -9 18 -24 18 -35 0 -16 -8
-18 -65 -18 -54 0 -65 3 -65 17 0 46 74 71 112 36z"/>
<path d="M23873 20309 c-44 -9 -59 -23 -79 -74 -23 -61 -12 -128 26 -167 24
-23 37 -28 79 -28 62 0 93 13 114 49 27 47 -14 59 -51 16 -37 -43 -101 -30
-120 25 l-11 30 100 0 99 0 0 25 c0 33 -22 86 -43 103 -23 20 -77 29 -114 21z
m86 -65 c11 -15 18 -30 15 -35 -3 -5 -34 -9 -70 -9 -53 0 -64 3 -64 17 0 53
83 72 119 27z"/>
<path d="M24439 20312 c-15 -2 -39 -16 -55 -33 -35 -37 -46 -127 -20 -177 28
-54 88 -73 149 -47 14 6 17 2 17 -18 0 -29 -23 -56 -48 -58 -38 -3 -58 3 -71
22 -17 24 -51 25 -51 2 2 -74 147 -93 199 -26 19 23 21 40 21 179 0 147 -1
154 -20 154 -11 0 -20 -5 -20 -11 0 -5 -5 -7 -10 -4 -19 12 -65 21 -91 17z
m81 -74 c34 -56 19 -128 -30 -148 -53 -22 -90 16 -90 92 0 85 80 122 120 56z"/>
<path d="M24723 20309 c-41 -12 -83 -62 -84 -102 -4 -124 29 -167 130 -167 54
0 97 27 103 65 5 31 -35 32 -56 1 -12 -19 -25 -26 -49 -26 -36 0 -77 34 -77
63 0 15 13 17 95 17 l95 0 0 33 c-1 82 -76 138 -157 116z m87 -59 c38 -38 27
-50 -50 -50 -56 0 -70 3 -70 15 0 25 38 55 70 55 17 0 39 -9 50 -20z"/>
<path d="M25006 20304 c-14 -7 -26 -9 -26 -3 0 5 -11 9 -25 9 l-26 0 3 -132
c3 -127 4 -133 24 -136 20 -3 22 2 26 91 4 105 15 127 58 127 27 0 46 22 35
40 -9 15 -44 18 -69 4z"/>
<path d="M25692 20309 c-66 -14 -98 -72 -89 -162 3 -41 11 -56 36 -79 58 -52
168 -31 197 37 26 62 12 150 -29 183 -23 20 -77 29 -115 21z m83 -59 c27 -30
30 -99 6 -137 -27 -44 -79 -46 -110 -7 -48 61 -14 164 53 164 20 0 40 -8 51
-20z"/>
<path d="M26263 20310 c-42 -9 -63 -27 -80 -67 -27 -65 -9 -154 38 -187 15
-10 44 -16 77 -16 46 0 58 4 83 29 16 16 29 37 29 45 0 25 -40 19 -62 -9 -36
-46 -104 -29 -122 33 -7 22 -6 22 95 22 l102 0 -7 41 c-9 53 -40 97 -74 105
-15 3 -31 7 -37 8 -5 1 -25 -1 -42 -4z m79 -57 c10 -9 18 -24 18 -35 0 -16 -8
-18 -65 -18 -54 0 -65 3 -65 17 0 46 74 71 112 36z"/>
<path d="M4240 20175 l0 -135 25 0 25 0 0 135 0 135 -25 0 -25 0 0 -135z"/>
<path d="M5460 20175 l0 -135 25 0 25 0 0 135 0 135 -25 0 -25 0 0 -135z"/>
<path d="M6940 20175 l0 -135 25 0 25 0 0 135 0 135 -25 0 -25 0 0 -135z"/>
<path d="M7190 20216 c0 -101 12 -151 40 -166 28 -15 93 -12 118 6 20 14 22
14 22 0 0 -9 9 -16 20 -16 19 0 20 7 20 135 l0 135 -25 0 c-25 0 -25 0 -25
-95 0 -82 -3 -98 -20 -115 -27 -27 -65 -26 -84 2 -12 16 -16 47 -16 115 0 93
0 93 -25 93 -25 0 -25 0 -25 -94z"/>
<path d="M7620 20175 l0 -135 25 0 25 0 0 135 0 135 -25 0 -25 0 0 -135z"/>
<path d="M22816 18398 c-49 -83 -59 -120 -60 -205 0 -74 3 -88 38 -158 35 -71
58 -96 73 -81 3 3 -5 30 -20 59 -57 118 -58 248 -2 362 29 60 30 65 10 65 -8
0 -25 -19 -39 -42z"/>
<path d="M22951 18376 c56 -119 57 -237 2 -359 -14 -31 -23 -60 -20 -63 14
-15 37 9 67 69 59 119 57 243 -6 354 -24 43 -41 63 -54 63 -17 0 -17 -5 11
-64z"/>
<path d="M20919 18403 c-5 -16 -35 -94 -66 -174 l-56 -146 -28 14 c-29 14 -29
15 -29 104 0 82 1 89 20 89 13 0 20 7 20 20 0 13 -7 20 -20 20 -17 0 -20 7
-20 45 0 25 -3 45 -7 45 -22 -1 -43 -30 -43 -59 0 -21 -5 -31 -15 -31 -8 0
-15 -9 -15 -20 0 -11 7 -20 15 -20 12 0 15 -18 15 -99 0 -123 6 -131 94 -131
l62 0 19 55 18 55 76 0 76 0 20 -52 c17 -44 25 -54 48 -56 15 -2 27 1 27 7 0
5 -32 89 -72 185 -69 170 -72 176 -100 176 -22 0 -31 -6 -39 -27z m69 -106
c31 -84 30 -87 -26 -87 -27 0 -51 2 -54 5 -2 3 7 39 21 80 14 41 28 71 32 67
3 -4 15 -33 27 -65z"/>
<path d="M21590 18245 l0 -185 24 0 c24 0 24 2 28 101 3 110 13 129 68 129 44
0 50 -16 50 -127 l0 -103 25 0 25 0 0 109 c0 100 -2 112 -22 136 -18 20 -33
26 -64 27 -23 0 -51 -5 -62 -11 -21 -11 -22 -10 -22 49 0 57 -1 60 -25 60
l-25 0 0 -185z"/>
<path d="M21882 18283 c4 -196 22 -223 144 -223 121 0 144 38 144 235 l0 135
-25 0 -25 0 0 -134 c0 -127 -1 -137 -23 -162 -32 -37 -105 -40 -139 -6 -21 21
-23 33 -26 162 l-4 140 -25 0 -25 0 4 -147z"/>
<path d="M22250 18245 l0 -185 25 0 c25 0 25 1 25 80 l0 80 48 0 c55 0 74 -16
131 -107 29 -47 37 -53 67 -53 l35 0 -37 58 c-20 31 -47 69 -61 84 -24 25 -24
26 -6 32 82 26 89 158 10 186 -16 5 -77 10 -133 10 l-104 0 0 -185z m205 131
c29 -12 35 -20 35 -45 0 -45 -30 -61 -117 -61 l-73 0 0 53 c0 30 3 57 7 60 12
13 113 7 148 -7z"/>
<path d="M22630 18245 l0 -185 25 0 25 0 0 185 0 185 -25 0 -25 0 0 -185z"/>
<path d="M21478 18409 c-12 -6 -18 -22 -18 -44 0 -24 -5 -35 -15 -35 -8 0 -15
-9 -15 -20 0 -11 7 -20 15 -20 12 0 15 -18 15 -103 0 -67 4 -107 12 -115 13
-13 88 -17 88 -4 0 13 -15 28 -32 35 -15 5 -18 20 -18 97 0 83 1 90 20 90 13
0 20 7 20 20 0 13 -7 20 -20 20 -17 0 -20 7 -20 45 0 47 -4 51 -32 34z"/>
<path d="M20189 18332 c-15 -2 -39 -16 -55 -33 -35 -37 -46 -127 -20 -177 28
-54 88 -73 149 -47 14 6 17 2 17 -18 0 -29 -23 -56 -48 -58 -38 -3 -58 3 -71
22 -17 24 -51 25 -51 2 2 -74 147 -93 199 -26 19 23 21 40 21 179 0 147 -1
154 -20 154 -11 0 -20 -5 -20 -11 0 -5 -5 -7 -10 -4 -19 12 -65 21 -91 17z
m81 -74 c34 -56 19 -128 -30 -148 -53 -22 -90 16 -90 92 0 85 80 122 120 56z"/>
<path d="M20473 18329 c-44 -9 -59 -23 -79 -74 -23 -61 -12 -128 26 -167 24
-23 37 -28 79 -28 62 0 93 13 114 49 27 47 -14 59 -51 16 -37 -43 -101 -30
-120 25 l-11 30 100 0 99 0 0 25 c0 33 -22 86 -43 103 -23 20 -77 29 -114 21z
m86 -65 c11 -15 18 -30 15 -35 -3 -5 -34 -9 -70 -9 -53 0 -64 3 -64 17 0 53
83 72 119 27z"/>
<path d="M21160 18236 c0 -101 12 -151 40 -166 28 -15 93 -12 118 6 20 14 22
14 22 0 0 -9 9 -16 20 -16 19 0 20 7 20 135 l0 135 -25 0 c-25 0 -25 0 -25
-95 0 -82 -3 -98 -20 -115 -27 -27 -65 -26 -84 2 -12 16 -16 47 -16 115 0 93
0 93 -25 93 -25 0 -25 0 -25 -94z"/>
<path d="M24480 17810 l0 -60 -3035 0 -3035 0 0 -30 0 -30 3035 0 3035 0 0
-75 0 -75 175 87 c96 48 171 91 167 94 -10 10 -322 149 -333 149 -5 0 -9 -27
-9 -60z"/>
<path d="M21982 16960 c-29 -12 -42 -48 -42 -116 0 -61 -13 -94 -35 -94 -9 0
-15 -10 -15 -25 0 -15 6 -25 14 -25 23 0 30 -20 37 -103 6 -86 16 -103 67
-113 28 -6 32 -4 32 15 0 14 -9 25 -25 31 -22 8 -25 16 -25 57 0 62 -17 123
-36 130 -13 5 -12 9 5 24 18 17 27 54 33 139 2 28 8 36 26 38 17 3 22 9 20 25
-3 25 -22 30 -56 17z"/>
<path d="M23930 16951 c0 -13 9 -25 23 -30 21 -8 25 -18 30 -82 5 -55 11 -77
28 -95 12 -13 17 -24 11 -24 -20 0 -34 -40 -41 -114 -5 -64 -8 -71 -29 -74
-17 -3 -22 -9 -20 -25 2 -18 9 -22 32 -20 47 3 59 24 65 110 7 83 14 103 37
103 22 0 18 48 -6 55 -23 7 -28 24 -33 113 -4 70 -16 88 -65 98 -28 6 -32 4
-32 -15z"/>
<path d="M19470 16774 l0 -185 28 3 c27 3 27 4 30 81 l3 77 43 0 c49 0 73 -21
131 -112 26 -42 34 -48 64 -48 l33 0 -17 28 c-10 15 -25 38 -33 52 -9 14 -29
39 -44 56 l-29 31 31 13 c53 22 74 85 46 139 -22 41 -55 51 -176 51 l-110 0 0
-186z m224 127 c26 -22 26 -52 1 -77 -21 -21 -34 -24 -95 -24 l-70 0 0 61 0
62 75 -5 c41 -3 81 -10 89 -17z"/>
<path d="M22230 16825 c0 -154 11 -195 59 -219 40 -21 135 -21 170 0 50 30 56
48 59 207 l4 147 -25 0 -25 0 -4 -140 c-3 -127 -5 -141 -25 -161 -31 -32 -104
-32 -135 -1 -21 21 -23 32 -26 162 l-4 140 -24 0 -24 0 0 -135z"/>
<path d="M22600 16776 l0 -186 25 0 c25 0 25 1 25 80 l0 80 48 0 c55 0 68 -10
126 -102 31 -49 41 -58 66 -58 17 0 30 3 30 8 0 10 -67 111 -93 139 l-20 22
26 10 c59 23 77 107 33 158 -24 27 -27 28 -145 31 l-121 4 0 -186z m197 133
c47 -18 57 -55 23 -89 -16 -16 -33 -20 -95 -20 l-75 0 0 60 0 60 59 0 c33 0
72 -5 88 -11z"/>
<path d="M22980 16775 l0 -185 25 0 25 0 0 185 0 185 -25 0 -25 0 0 -185z"/>
<path d="M19913 16859 c-44 -9 -59 -23 -79 -74 -23 -61 -12 -128 26 -167 24
-23 37 -28 79 -28 62 0 93 13 114 49 27 47 -14 59 -51 16 -37 -43 -101 -30
-120 25 l-11 30 100 0 99 0 0 25 c0 33 -22 86 -43 103 -23 20 -77 29 -114 21z
m86 -65 c11 -15 18 -30 15 -35 -3 -5 -34 -9 -70 -9 -53 0 -64 3 -64 17 0 53
83 72 119 27z"/>
<path d="M20180 16863 c-37 -7 -70 -42 -70 -75 0 -37 29 -64 82 -78 56 -14 72
-23 76 -45 9 -42 -75 -49 -107 -9 -23 30 -58 29 -53 -1 6 -39 49 -65 106 -65
72 0 106 26 106 80 0 45 -17 61 -90 81 -54 15 -75 32 -67 53 10 25 81 21 98
-5 15 -22 49 -18 49 7 0 20 -37 54 -59 54 -11 0 -25 2 -33 4 -7 2 -24 1 -38
-1z"/>
<path d="M20457 16855 c-20 -7 -37 -9 -37 -4 0 5 -11 9 -25 9 l-25 0 2 -182
c3 -181 3 -183 26 -186 21 -3 22 0 22 57 0 56 10 76 25 51 9 -15 72 -12 104 4
46 24 70 104 52 173 -19 69 -77 101 -144 78z m70 -49 c55 -48 29 -176 -37
-176 -69 0 -97 114 -41 171 36 35 42 36 78 5z"/>
<path d="M20725 16855 c-45 -16 -61 -34 -75 -85 -13 -48 -13 -63 6 -109 21
-52 51 -71 115 -71 45 0 55 4 85 34 32 32 34 38 34 99 0 56 -4 70 -25 96 -23
27 -37 34 -85 46 -8 2 -33 -2 -55 -10z m92 -57 c49 -46 18 -168 -43 -168 -39
0 -61 17 -74 55 -31 95 51 175 117 113z"/>
<path d="M21045 16863 c-11 -3 -28 -12 -37 -21 -16 -14 -18 -14 -18 1 0 11 -8
17 -25 17 l-26 0 3 -132 c3 -127 4 -133 25 -136 20 -3 21 1 25 91 3 106 19
137 68 137 43 0 53 -22 58 -130 4 -89 7 -100 23 -100 17 0 19 9 19 115 0 102
-2 117 -20 135 -11 11 -26 20 -34 20 -8 0 -20 2 -28 4 -7 2 -22 1 -33 -1z"/>
<path d="M21290 16863 c-37 -7 -70 -42 -70 -75 0 -37 29 -64 82 -78 56 -14 72
-23 76 -45 9 -42 -75 -49 -107 -9 -23 30 -58 29 -53 -1 6 -39 49 -65 106 -65
72 0 106 26 106 80 0 45 -17 61 -90 81 -54 15 -75 32 -67 53 10 25 81 21 98
-5 15 -22 49 -18 49 7 0 20 -37 54 -59 54 -11 0 -25 2 -33 4 -7 2 -24 1 -38
-1z"/>
<path d="M21563 16860 c-42 -9 -63 -27 -80 -67 -27 -65 -9 -154 38 -187 15
-10 44 -16 77 -16 46 0 58 4 83 29 16 16 29 37 29 45 0 25 -40 19 -62 -9 -36
-46 -104 -29 -122 33 -7 22 -6 22 95 22 l102 0 -7 41 c-9 53 -40 97 -74 105
-15 3 -31 7 -37 8 -5 1 -25 -1 -42 -4z m79 -57 c10 -9 18 -24 18 -35 0 -16 -8
-18 -65 -18 -54 0 -65 3 -65 17 0 46 74 71 112 36z"/>
<path d="M23117 16644 c-13 -14 -7 -54 8 -54 20 0 19 -15 -1 -35 -13 -13 -14
-19 -5 -28 10 -9 17 -7 32 12 28 34 23 105 -6 109 -12 2 -24 0 -28 -4z"/>
<path d="M23400 16620 c0 -25 4 -30 25 -30 21 0 25 5 25 30 0 25 -4 30 -25 30
-21 0 -25 -5 -25 -30z"/>
<path d="M23547 16644 c-4 -4 -7 -18 -7 -31 0 -19 5 -23 31 -23 27 0 30 3 27
28 -3 26 -34 43 -51 26z"/>
<path d="M23687 16643 c-4 -3 -7 -17 -7 -30 0 -19 5 -23 30 -23 27 0 30 3 30
30 0 25 -4 30 -23 30 -13 0 -27 -3 -30 -7z"/>
<path d="M18673 16331 l-173 -86 168 -75 c92 -41 171 -75 177 -75 5 0 10 27
10 60 l0 60 3038 3 3038 2 -3 28 -3 27 -3032 3 -3033 2 0 58 c0 31 -4 62 -8
68 -5 8 -62 -16 -179 -75z"/>
<path d="M13655 15493 c-29 -7 -45 -32 -45 -70 0 -26 -4 -33 -20 -33 -13 0
-20 -7 -20 -20 0 -13 7 -20 20 -20 19 0 20 -7 20 -115 l0 -115 25 0 25 0 0
115 0 115 25 0 c18 0 25 5 25 20 0 15 -7 20 -26 20 -22 0 -25 4 -22 28 2 21 9
28 29 30 35 4 46 38 15 46 -11 3 -23 5 -26 5 -3 -1 -14 -3 -25 -6z"/>
<path d="M14086 15458 c-49 -83 -59 -120 -60 -205 0 -74 3 -88 38 -158 35 -71
58 -96 73 -81 3 3 -5 30 -20 59 -57 118 -58 248 -2 362 29 60 30 65 10 65 -8
0 -25 -19 -39 -42z"/>
<path d="M14221 15436 c56 -119 57 -237 2 -359 -14 -31 -23 -60 -20 -63 14
-15 37 9 67 69 59 119 57 243 -6 354 -24 43 -41 63 -54 63 -17 0 -17 -5 11
-64z"/>
<path d="M11100 15304 l0 -185 28 3 c27 3 27 4 30 81 l3 77 43 0 c49 0 73 -21
131 -112 26 -42 34 -48 64 -48 l33 0 -17 28 c-10 15 -25 38 -33 52 -9 14 -29
39 -44 56 l-29 31 31 13 c53 22 74 85 46 139 -22 41 -55 51 -176 51 l-110 0 0
-186z m224 127 c26 -22 26 -52 1 -77 -21 -21 -34 -24 -95 -24 l-70 0 0 61 0
62 75 -5 c41 -3 81 -10 89 -17z"/>
<path d="M12320 15465 c0 -20 5 -25 25 -25 20 0 25 5 25 25 0 20 -5 25 -25 25
-20 0 -25 -5 -25 -25z"/>
<path d="M13060 15430 c0 -60 -6 -70 -27 -49 -17 17 -80 13 -109 -6 -70 -45
-70 -192 0 -240 24 -17 89 -20 117 -5 13 7 19 7 19 0 0 -5 9 -10 20 -10 19 0
20 7 20 185 0 178 -1 185 -20 185 -18 0 -20 -7 -20 -60z m-25 -100 c10 -11 20
-41 22 -67 6 -59 -22 -103 -66 -103 -39 0 -63 31 -68 87 -4 39 -1 53 17 76 26
33 69 36 95 7z"/>
<path d="M13190 15305 l0 -185 25 0 25 0 0 185 0 185 -25 0 -25 0 0 -185z"/>
<path d="M10978 15466 c-11 -8 -18 -26 -18 -45 0 -21 -5 -31 -15 -31 -8 0 -15
-9 -15 -20 0 -11 7 -20 15 -20 12 0 15 -17 15 -93 0 -111 12 -137 66 -137 27
0 34 4 34 19 0 12 -9 21 -25 25 -24 6 -25 9 -25 96 l0 90 26 0 c33 0 30 33 -4
38 -19 3 -22 9 -22 48 0 47 -5 51 -32 30z"/>
<path d="M10451 15386 c-69 -23 -98 -108 -66 -191 26 -69 82 -90 159 -59 17 6
18 4 12 -22 -9 -35 -24 -52 -51 -54 -39 -4 -55 0 -72 20 -24 28 -55 27 -51 -1
7 -51 96 -79 163 -51 53 22 59 42 63 210 l4 152 -26 0 c-14 0 -26 -5 -26 -11
0 -5 -5 -7 -10 -4 -27 17 -68 22 -99 11z m88 -62 c37 -47 19 -144 -29 -157
-33 -8 -60 4 -75 34 -34 65 -3 149 55 149 19 0 36 -9 49 -26z"/>
<path d="M10743 15389 c-41 -12 -83 -62 -84 -102 -4 -124 29 -167 130 -167 54
0 97 27 103 65 5 31 -35 32 -56 1 -12 -19 -25 -26 -49 -26 -36 0 -77 34 -77
63 0 15 13 17 95 17 l95 0 0 33 c-1 82 -76 138 -157 116z m87 -59 c38 -38 27
-50 -50 -50 -56 0 -70 3 -70 15 0 25 38 55 70 55 17 0 39 -9 50 -20z"/>
<path d="M11543 15390 c-42 -9 -63 -27 -80 -67 -27 -65 -9 -154 38 -187 15
-10 44 -16 77 -16 46 0 58 4 83 29 16 16 29 37 29 45 0 25 -40 19 -62 -9 -36
-46 -104 -29 -122 33 -7 22 -6 22 95 22 l102 0 -7 41 c-9 53 -40 97 -74 105
-15 3 -31 7 -37 8 -5 1 -25 -1 -42 -4z m79 -57 c10 -9 18 -24 18 -35 0 -16 -8
-18 -65 -18 -54 0 -65 3 -65 17 0 46 74 71 112 36z"/>
<path d="M11810 15386 c-54 -17 -76 -71 -71 -168 0 -15 15 -43 32 -63 26 -29
38 -35 71 -35 21 0 48 5 59 10 18 10 19 7 19 -50 0 -57 1 -60 25 -60 l25 0 0
185 0 185 -25 0 c-14 0 -25 -5 -25 -11 0 -5 -5 -7 -10 -4 -27 17 -68 22 -100
11z m94 -68 c33 -47 13 -143 -31 -155 -63 -15 -106 56 -81 133 22 66 75 76
112 22z"/>
<path d="M12506 15385 c-14 -8 -26 -10 -26 -4 0 5 -11 9 -25 9 l-25 0 0 -135
0 -135 25 0 c25 0 25 1 25 85 0 107 12 135 57 135 31 0 35 4 32 38 -1 16 -38
20 -63 7z"/>
<path d="M12681 15389 c-18 -4 -45 -19 -60 -33 -23 -24 -26 -34 -26 -102 0
-73 1 -77 33 -105 27 -25 41 -29 88 -29 48 0 59 4 85 29 16 16 29 37 29 45 0
25 -40 19 -62 -9 -27 -35 -79 -34 -107 1 -38 48 -30 54 74 54 l95 0 0 38 c0
79 -66 128 -149 111z m83 -61 c29 -41 21 -48 -54 -48 -38 0 -70 3 -70 6 0 11
23 49 34 56 24 16 75 8 90 -14z"/>
<path d="M13415 15393 c-11 -3 -28 -12 -37 -21 -16 -14 -18 -14 -18 1 0 11 -8
17 -25 17 l-26 0 3 -132 c3 -127 4 -133 25 -136 20 -3 21 1 25 91 3 106 19
137 68 137 43 0 53 -22 58 -130 4 -89 7 -100 23 -100 17 0 19 9 19 115 0 102
-2 117 -20 135 -11 11 -26 20 -34 20 -8 0 -20 2 -28 4 -7 2 -22 1 -33 -1z"/>
<path d="M13805 15385 c-45 -16 -61 -34 -75 -85 -13 -48 -13 -63 6 -109 21
-52 51 -71 115 -71 45 0 55 4 85 34 32 32 34 38 34 99 0 56 -4 70 -25 96 -23
27 -37 34 -85 46 -8 2 -33 -2 -55 -10z m92 -57 c49 -46 18 -168 -43 -168 -39
0 -61 17 -74 55 -31 95 51 175 117 113z"/>
<path d="M12030 15296 c0 -101 12 -151 40 -166 28 -15 93 -12 118 6 20 14 22
14 22 0 0 -9 9 -16 20 -16 19 0 20 7 20 135 l0 135 -25 0 c-25 0 -25 0 -25
-95 0 -82 -3 -98 -20 -115 -27 -27 -65 -26 -84 2 -12 16 -16 47 -16 115 0 93
0 93 -25 93 -25 0 -25 0 -25 -94z"/>
<path d="M12320 15255 l0 -135 25 0 25 0 0 135 0 135 -25 0 -25 0 0 -135z"/>
<path d="M6376 14864 c-92 -47 -167 -86 -165 -88 6 -5 340 -156 345 -156 2 0
4 29 4 65 l0 65 5895 0 5895 0 0 30 0 30 -5895 0 -5895 0 0 70 c0 39 -3 70 -7
69 -5 0 -84 -38 -177 -85z"/>
<path d="M11109 14023 c-25 -6 -37 -42 -41 -117 -3 -56 -8 -72 -26 -86 -28
-23 -28 -47 -1 -69 18 -14 23 -33 28 -94 7 -82 18 -101 64 -112 24 -6 27 -5
27 19 0 19 -5 26 -19 26 -24 0 -31 19 -31 89 0 42 -5 65 -19 82 -19 24 -19 25
0 48 14 17 19 39 19 81 0 71 6 90 31 90 14 0 19 7 19 25 0 25 -11 29 -51 18z"/>
<path d="M15590 14006 c0 -19 5 -26 19 -26 22 0 31 -26 31 -96 0 -35 6 -59 19
-75 19 -24 19 -25 0 -48 -13 -16 -19 -39 -19 -71 0 -59 -14 -100 -35 -100 -10
0 -15 -9 -15 -26 0 -23 3 -25 28 -20 46 11 62 40 62 113 0 55 4 67 25 89 14
14 25 31 25 39 0 8 -11 25 -25 39 -21 22 -25 34 -25 89 0 73 -16 102 -62 113
-25 5 -28 3 -28 -20z"/>
<path d="M8600 13836 l0 -186 25 0 c25 0 25 1 25 80 l0 80 46 0 c53 0 78 -21
129 -109 26 -44 34 -51 63 -51 17 0 32 2 32 5 0 15 -102 155 -113 156 -7 0 2
7 20 15 65 28 85 108 39 161 -24 27 -27 28 -145 31 l-121 4 0 -186z m222 114
c23 -29 23 -45 -2 -70 -16 -16 -33 -20 -95 -20 l-75 0 0 61 0 62 77 -5 c64 -4
80 -9 95 -28z"/>
<path d="M11350 13835 l0 -185 25 0 24 0 3 138 3 137 93 -137 c77 -115 96
-138 117 -138 l25 0 0 185 0 185 -25 0 -25 0 0 -137 0 -138 -92 138 c-81 123
-94 137 -119 137 l-29 0 0 -185z"/>
<path d="M13093 14003 c-4 -10 -35 -92 -70 -183 -35 -90 -63 -166 -63 -167 0
-2 13 -3 28 -3 25 0 30 6 47 55 l18 55 76 0 76 0 20 -52 c17 -44 25 -54 48
-56 15 -2 27 1 27 7 0 5 -32 89 -72 185 -69 170 -72 176 -100 176 -18 0 -31
-6 -35 -17z m65 -116 c31 -84 30 -87 -26 -87 -27 0 -51 2 -54 5 -2 3 7 39 21
80 14 41 28 71 32 67 3 -4 15 -33 27 -65z"/>
<path d="M14638 13996 c-11 -8 -18 -26 -18 -45 0 -21 -5 -31 -15 -31 -8 0 -15
-9 -15 -20 0 -11 7 -20 15 -20 12 0 15 -18 15 -99 0 -113 9 -131 66 -131 41 0
47 26 9 40 -24 9 -25 13 -25 100 0 83 1 90 20 90 13 0 20 7 20 20 0 13 -7 20
-20 20 -17 0 -20 7 -20 45 0 48 -5 52 -32 31z"/>
<path d="M9033 13919 c-41 -12 -83 -62 -84 -102 -4 -124 29 -167 130 -167 54
0 97 27 103 65 5 31 -35 32 -56 1 -12 -19 -25 -26 -49 -26 -36 0 -77 34 -77
63 0 15 13 17 95 17 l95 0 0 33 c-1 82 -76 138 -157 116z m87 -59 c38 -38 27
-50 -50 -50 -56 0 -70 3 -70 15 0 25 38 55 70 55 17 0 39 -9 50 -20z"/>
<path d="M9301 13919 c-44 -9 -64 -31 -64 -69 0 -42 26 -65 96 -84 60 -18 78
-36 57 -61 -24 -29 -110 -12 -110 20 0 9 -10 15 -25 15 -33 0 -33 -28 0 -64
21 -22 32 -26 83 -26 49 0 64 4 86 25 27 25 34 62 16 95 -6 12 -37 27 -80 40
-75 22 -88 33 -70 55 19 23 76 19 94 -6 10 -15 20 -19 35 -14 26 8 26 16 4 44
-22 27 -76 40 -122 30z"/>
<path d="M9595 13922 c-11 -2 -26 -9 -34 -16 -11 -8 -15 -8 -18 2 -3 6 -13 12
-24 12 -18 0 -19 -9 -19 -185 l0 -185 25 0 c24 0 25 3 25 62 0 48 3 59 12 50
17 -17 89 -15 116 4 50 35 68 132 37 199 -21 43 -72 67 -120 57z m70 -65 c22
-32 19 -109 -6 -141 -28 -35 -72 -35 -95 0 -20 29 -22 101 -4 134 22 42 78 45
105 7z"/>
<path d="M9875 13922 c-75 -13 -105 -54 -105 -147 0 -51 3 -60 34 -91 29 -29
41 -34 80 -34 83 0 116 30 131 120 8 44 -18 113 -48 133 -25 16 -63 24 -92 19z
m55 -52 c27 -15 42 -76 29 -122 -16 -59 -72 -77 -116 -36 -31 29 -33 118 -3
148 22 22 60 26 90 10z"/>
<path d="M10170 13922 c-14 -2 -33 -11 -42 -19 -16 -15 -18 -15 -18 0 0 10 -8
17 -20 17 -19 0 -20 -7 -20 -136 0 -135 0 -135 23 -132 21 3 22 8 25 98 3 105
15 130 63 130 46 0 59 -31 59 -137 0 -93 0 -93 25 -93 25 0 25 1 25 88 0 88
-13 156 -31 167 -19 12 -64 21 -89 17z"/>
<path d="M10410 13919 c-59 -13 -88 -70 -55 -112 7 -10 42 -27 76 -38 69 -22
83 -34 68 -61 -16 -29 -84 -25 -105 7 -20 31 -54 34 -54 5 0 -12 11 -32 25
-45 20 -21 34 -25 80 -25 49 0 60 4 86 29 54 55 28 103 -72 135 -50 17 -64 25
-64 41 0 16 8 21 42 23 33 2 44 -1 56 -18 19 -28 58 -20 50 10 -11 40 -71 62
-133 49z"/>
<path d="M10683 13919 c-44 -9 -59 -23 -79 -74 -23 -61 -12 -128 26 -167 24
-23 37 -28 79 -28 62 0 93 13 114 49 27 47 -14 59 -51 16 -37 -43 -101 -30
-120 25 l-11 30 100 0 99 0 0 25 c0 33 -22 86 -43 103 -23 20 -77 29 -114 21z
m86 -65 c11 -15 18 -30 15 -35 -3 -5 -34 -9 -70 -9 -53 0 -64 3 -64 17 0 53
83 72 119 27z"/>
<path d="M11793 13923 c-35 -5 -83 -44 -83 -68 0 -22 43 -19 58 5 14 23 80 28
100 8 24 -24 14 -47 -25 -53 -111 -19 -143 -41 -143 -95 0 -45 33 -70 93 -70
30 0 62 6 74 15 19 13 22 13 27 0 3 -8 17 -15 30 -15 23 0 25 2 16 26 -6 14
-10 66 -10 115 0 76 -3 92 -20 109 -11 11 -29 20 -39 20 -11 0 -25 2 -33 3 -7
2 -27 2 -45 0z m87 -164 c0 -33 -17 -56 -51 -68 -26 -9 -37 -8 -56 4 -54 35
-16 67 100 84 4 1 7 -8 7 -20z"/>
<path d="M12084 13914 c-24 -8 -40 -10 -42 -4 -2 6 -12 10 -23 10 -18 0 -19
-9 -19 -135 l0 -135 25 0 c25 0 25 0 25 93 0 108 13 137 61 137 39 0 49 -27
49 -141 0 -80 2 -89 19 -89 16 0 19 11 23 95 6 103 20 135 63 135 36 0 44 -21
47 -126 3 -94 4 -99 26 -102 22 -3 22 -2 22 112 0 103 -2 118 -20 136 -29 29
-92 30 -122 3 -16 -14 -20 -14 -35 -1 -27 23 -56 27 -99 12z"/>
<path d="M12503 13920 c-42 -9 -63 -27 -80 -67 -27 -65 -9 -154 38 -187 15
-10 44 -16 77 -16 46 0 58 4 83 29 16 16 29 37 29 45 0 25 -40 19 -62 -9 -36
-46 -104 -29 -122 33 -7 22 -6 22 95 22 l102 0 -7 41 c-9 53 -40 97 -74 105
-15 3 -31 7 -37 8 -5 1 -25 -1 -42 -4z m79 -57 c10 -9 18 -24 18 -35 0 -16 -8
-18 -65 -18 -54 0 -65 3 -65 17 0 46 74 71 112 36z"/>
<path d="M13435 13922 c-11 -2 -26 -9 -34 -16 -11 -8 -15 -8 -18 2 -3 6 -16
12 -29 12 l-25 0 3 -132 c3 -129 4 -133 26 -136 21 -3 22 -1 22 76 0 98 13
140 48 149 49 12 57 -4 60 -121 3 -105 3 -106 27 -106 25 0 25 1 25 93 0 107
13 137 60 137 41 0 50 -23 50 -134 l0 -96 26 0 26 0 -3 115 c-4 101 -7 117
-25 136 -26 25 -84 28 -118 6 -15 -10 -27 -12 -33 -6 -14 14 -65 26 -88 21z"/>
<path d="M13825 13915 c-45 -16 -61 -34 -75 -85 -13 -48 -13 -63 6 -109 21
-52 51 -71 115 -71 45 0 55 4 85 34 32 32 34 38 34 99 0 56 -4 70 -25 96 -23
27 -37 34 -85 46 -8 2 -33 -2 -55 -10z m92 -57 c49 -46 18 -168 -43 -168 -39
0 -61 17 -74 55 -31 95 51 175 117 113z"/>
<path d="M14426 13919 c-15 -4 -34 -13 -42 -20 -11 -9 -14 -8 -14 5 0 9 -8 16
-20 16 -19 0 -20 -7 -20 -135 l0 -135 25 0 c25 0 25 0 25 95 0 82 3 98 20 115
24 24 63 26 84 4 12 -12 16 -38 16 -115 l0 -99 26 0 26 0 -4 114 c-2 93 -6
118 -21 134 -21 23 -61 31 -101 21z"/>
<path d="M14040 13826 c0 -101 12 -151 40 -166 28 -15 93 -12 118 6 20 14 22
14 22 0 0 -9 9 -16 20 -16 19 0 20 7 20 135 l0 135 -25 0 c-25 0 -25 0 -25
-95 0 -82 -3 -98 -20 -115 -27 -27 -65 -26 -84 2 -12 16 -16 47 -16 115 0 93
0 93 -25 93 -25 0 -25 0 -25 -94z"/>
<path d="M12720 13681 c0 -22 5 -31 16 -31 15 0 15 -2 -1 -26 -20 -31 -8 -51
19 -31 12 9 18 28 19 62 2 48 1 50 -25 53 -25 3 -28 0 -28 -27z"/>
<path d="M14770 13682 c0 -17 6 -32 13 -35 9 -3 9 -10 -2 -30 -19 -36 -4 -48
20 -18 29 35 23 105 -8 109 -20 3 -23 -1 -23 -26z"/>
<path d="M15057 13704 c-4 -4 -7 -18 -7 -31 0 -19 5 -23 31 -23 27 0 30 3 27
28 -3 26 -34 43 -51 26z"/>
<path d="M15197 13704 c-4 -4 -7 -18 -7 -31 0 -19 5 -23 31 -23 27 0 30 3 27
28 -3 26 -34 43 -51 26z"/>
<path d="M15337 13703 c-4 -3 -7 -17 -7 -30 0 -19 5 -23 30 -23 27 0 30 3 30
30 0 25 -4 30 -23 30 -13 0 -27 -3 -30 -7z"/>
<path d="M17900 13400 l0 -60 -5890 0 -5890 0 0 -30 0 -30 5890 0 5890 0 0
-70 c0 -40 4 -70 10 -70 13 0 340 163 340 170 -1 7 -322 150 -337 150 -9 0
-13 -19 -13 -60z"/>
<path d="M19570 12563 c-32 -12 -50 -37 -50 -70 0 -26 -4 -33 -20 -33 -13 0
-20 -7 -20 -20 0 -13 7 -20 20 -20 19 0 20 -7 20 -115 l0 -115 25 0 25 0 0
115 0 115 25 0 c18 0 25 5 25 20 0 15 -7 20 -26 20 -22 0 -25 4 -22 28 2 21 9
28 30 30 22 3 46 28 36 38 -8 7 -55 12 -68 7z"/>
<path d="M16960 12375 l0 -185 25 0 c24 0 25 2 25 74 l0 73 86 5 c74 4 88 8
110 29 31 31 41 88 24 130 -19 45 -61 59 -175 59 l-95 0 0 -185z m216 110 c17
-26 13 -55 -12 -80 -11 -10 -36 -15 -85 -15 l-69 0 0 60 0 60 75 0 c68 0 76
-2 91 -25z"/>
<path d="M18140 12375 l0 -185 25 0 25 0 0 185 0 185 -25 0 -25 0 0 -185z"/>
<path d="M19110 12535 c0 -20 5 -25 25 -25 20 0 25 5 25 25 0 20 -5 25 -25 25
-20 0 -25 -5 -25 -25z"/>
<path d="M18568 12536 c-11 -8 -18 -26 -18 -45 0 -21 -5 -31 -15 -31 -8 0 -15
-9 -15 -20 0 -11 7 -20 15 -20 12 0 15 -18 15 -99 0 -113 9 -131 66 -131 41 0
47 26 9 40 -24 9 -25 13 -25 100 0 83 1 90 20 90 13 0 20 7 20 20 0 13 -7 20
-20 20 -17 0 -20 7 -20 45 0 48 -5 52 -32 31z"/>
<path d="M17385 12462 c-75 -13 -105 -54 -105 -147 0 -51 3 -60 34 -91 29 -29
41 -34 80 -34 83 0 116 30 131 120 8 44 -18 113 -48 133 -25 16 -63 24 -92 19z
m55 -52 c27 -15 42 -76 29 -122 -16 -59 -72 -77 -116 -36 -31 29 -33 118 -3
148 22 22 60 26 90 10z"/>
<path d="M17675 12462 c-11 -2 -26 -9 -34 -16 -11 -8 -15 -8 -18 2 -3 6 -13
12 -24 12 -18 0 -19 -9 -19 -186 l0 -185 23 3 c19 3 23 10 27 63 3 36 8 55 13
48 12 -18 88 -16 116 3 62 44 67 183 9 232 -21 17 -68 29 -93 24z m74 -79 c30
-66 -3 -153 -58 -153 -36 0 -61 29 -68 78 -13 98 88 159 126 75z"/>
<path d="M18326 12460 c-35 -11 -62 -35 -69 -61 -7 -26 33 -26 56 1 31 37 117
19 117 -25 0 -8 -17 -16 -42 -20 -103 -16 -142 -42 -140 -96 1 -41 20 -60 71
-69 32 -6 50 -3 77 11 30 15 36 15 41 3 3 -8 16 -14 30 -14 19 0 24 4 19 16
-3 9 -6 58 -6 109 0 83 -3 97 -23 120 -25 29 -83 40 -131 25z m104 -159 c0
-26 -36 -68 -63 -73 -38 -7 -67 8 -67 36 0 21 7 27 38 35 41 11 73 18 85 20 4
0 7 -7 7 -18z"/>
<path d="M18763 12460 c-42 -9 -63 -27 -80 -67 -27 -65 -9 -154 38 -187 15
-10 44 -16 77 -16 46 0 58 4 83 29 16 16 29 37 29 45 0 25 -40 19 -62 -9 -36
-46 -104 -29 -122 33 -7 22 -6 22 95 22 l102 0 -7 41 c-9 53 -40 97 -74 105
-15 3 -31 7 -37 8 -5 1 -25 -1 -42 -4z m79 -57 c10 -9 18 -24 18 -35 0 -16 -8
-18 -65 -18 -54 0 -65 3 -65 17 0 46 74 71 112 36z"/>
<path d="M19325 12463 c-11 -3 -28 -12 -37 -21 -16 -14 -18 -14 -18 1 0 11 -8
17 -25 17 l-26 0 3 -132 c3 -127 4 -133 25 -136 20 -3 21 1 25 91 3 106 19
137 68 137 43 0 53 -22 58 -130 4 -89 7 -100 23 -100 17 0 19 9 19 115 0 102
-2 117 -20 135 -11 11 -26 20 -34 20 -8 0 -20 2 -28 4 -7 2 -22 1 -33 -1z"/>
<path d="M19745 12462 c-75 -13 -105 -54 -105 -147 0 -51 3 -60 34 -91 29 -29
41 -34 80 -34 83 0 116 30 131 120 8 44 -18 113 -48 133 -25 16 -63 24 -92 19z
m55 -52 c27 -15 42 -76 29 -122 -16 -59 -72 -77 -116 -36 -31 29 -33 118 -3
148 22 22 60 26 90 10z"/>
<path d="M17860 12351 c0 -94 3 -112 21 -135 17 -21 29 -26 66 -26 29 0 53 6
65 17 17 15 18 15 18 0 0 -11 8 -17 25 -17 l25 0 0 135 0 135 -25 0 c-25 0
-25 -1 -25 -89 0 -102 -19 -141 -69 -141 -45 0 -51 15 -51 127 l0 103 -25 0
-25 0 0 -109z"/>
<path d="M19110 12325 l0 -135 25 0 25 0 0 135 0 135 -25 0 -25 0 0 -135z"/>
<path d="M18690 11909 c-80 -9 -207 -26 -253 -35 -24 -5 -28 -10 -25 -32 4
-33 3 -33 193 -6 170 23 565 26 685 6 123 -22 258 -60 328 -93 87 -42 176
-129 192 -186 51 -195 -262 -360 -719 -380 -151 -6 -389 3 -410 16 -9 6 -9 23
-2 67 5 32 8 60 6 62 -3 3 -256 -71 -327 -96 l-47 -17 155 -102 c85 -57 158
-103 162 -103 5 0 13 28 18 63 8 54 12 62 29 59 90 -11 438 -13 540 -2 346 35
602 162 649 320 20 67 20 85 -1 146 -51 150 -304 277 -626 313 -110 12 -435
12 -547 0z"/>
<path d="M12050 10127 c-20 -10 -26 -21 -28 -55 -3 -34 -7 -42 -23 -42 -12 0
-19 -7 -19 -20 0 -13 7 -20 20 -20 19 0 20 -7 20 -115 0 -108 1 -115 20 -115
19 0 20 7 20 115 l0 115 25 0 c18 0 25 5 25 20 0 15 -7 20 -25 20 -17 0 -25 5
-25 18 0 25 19 42 47 42 16 0 23 6 23 19 0 31 -38 39 -80 18z"/>
<path d="M12649 10133 c-25 -6 -37 -42 -41 -117 -3 -56 -8 -72 -26 -86 -28
-23 -28 -47 -1 -69 18 -14 23 -33 28 -94 7 -82 18 -101 64 -112 24 -6 27 -5
27 19 0 19 -5 26 -19 26 -24 0 -31 19 -31 89 0 42 -5 65 -19 82 -19 24 -19 25
0 48 14 17 19 39 19 81 0 71 6 90 31 90 14 0 19 7 19 25 0 25 -11 29 -51 18z"/>
<path d="M15110 10116 c0 -18 6 -25 23 -28 20 -3 23 -10 28 -74 3 -40 12 -82
21 -95 14 -22 14 -26 -1 -48 -9 -14 -18 -55 -21 -95 -5 -64 -7 -71 -27 -74
-23 -3 -32 -35 -13 -47 16 -10 60 7 72 28 6 11 13 55 17 96 5 66 9 77 29 86
12 5 22 19 22 30 0 11 -10 25 -22 30 -20 9 -24 20 -29 80 -7 91 -14 110 -45
123 -39 18 -54 15 -54 -12z"/>
<path d="M9460 9946 l0 -186 25 0 c24 0 25 2 25 75 l0 75 68 0 c89 0 133 21
150 74 16 50 8 87 -24 117 -23 22 -36 24 -135 27 l-109 4 0 -186z m204 118
c21 -20 20 -63 -1 -86 -13 -14 -31 -18 -85 -18 l-68 0 0 60 0 60 69 0 c50 0
74 -4 85 -16z"/>
<path d="M11610 10105 c0 -20 5 -25 25 -25 20 0 25 5 25 25 0 20 -5 25 -25 25
-20 0 -25 -5 -25 -25z"/>
<path d="M11348 10106 c-11 -8 -18 -26 -18 -45 0 -21 -5 -31 -15 -31 -8 0 -15
-9 -15 -20 0 -11 7 -20 15 -20 12 0 15 -17 15 -93 0 -111 12 -137 66 -137 27
0 34 4 34 19 0 12 -9 21 -25 25 -24 6 -25 9 -25 96 l0 90 26 0 c33 0 30 33 -4
38 -19 3 -22 9 -22 48 0 47 -5 51 -32 30z"/>
<path d="M9868 10029 c-42 -6 -73 -30 -81 -60 -7 -26 33 -26 56 1 23 27 92 28
107 1 17 -32 12 -40 -27 -46 -70 -11 -110 -25 -128 -45 -25 -27 -22 -80 6
-102 27 -23 106 -24 137 -2 20 14 23 14 28 0 3 -9 16 -16 28 -16 20 0 21 3 18
107 -2 85 -7 113 -21 133 -20 28 -66 39 -123 29z m92 -157 c0 -47 -60 -89
-105 -72 -39 15 -34 56 8 69 79 24 97 25 97 3z"/>
<path d="M10414 10024 c-24 -8 -40 -10 -42 -4 -2 6 -12 10 -23 10 -18 0 -19
-9 -19 -135 l0 -135 25 0 c25 0 25 0 25 93 0 108 13 137 61 137 39 0 49 -27
49 -141 0 -80 2 -89 19 -89 16 0 19 11 23 95 6 103 20 135 63 135 36 0 44 -21
47 -126 3 -94 4 -99 26 -102 22 -3 22 -2 22 112 0 103 -2 118 -20 136 -29 29
-92 30 -122 3 -16 -14 -20 -14 -35 -1 -27 23 -56 27 -99 12z"/>
<path d="M10833 10030 c-42 -9 -63 -27 -80 -67 -27 -65 -9 -154 38 -187 15
-10 44 -16 77 -16 46 0 58 4 83 29 16 16 29 37 29 45 0 25 -40 19 -62 -9 -36
-46 -104 -29 -122 33 -7 22 -6 22 95 22 l102 0 -7 41 c-9 53 -40 97 -74 105
-15 3 -31 7 -37 8 -5 1 -25 -1 -42 -4z m79 -57 c10 -9 18 -24 18 -35 0 -16 -8
-18 -65 -18 -54 0 -65 3 -65 17 0 46 74 71 112 36z"/>
<path d="M11136 10029 c-15 -4 -34 -13 -42 -20 -11 -9 -14 -8 -14 5 0 9 -8 16
-20 16 -19 0 -20 -7 -20 -135 l0 -135 25 0 c25 0 25 0 25 95 0 82 3 98 20 115
24 24 63 26 84 4 12 -12 16 -38 16 -115 l0 -99 26 0 26 0 -4 114 c-2 93 -6
118 -21 134 -21 23 -61 31 -101 21z"/>
<path d="M11807 10025 c-20 -7 -40 -9 -43 -4 -3 5 -14 9 -25 9 -18 0 -19 -8
-19 -135 l0 -135 25 0 c25 0 25 0 25 95 0 107 14 135 68 135 46 0 52 -15 52
-127 l0 -103 25 0 25 0 0 109 c0 100 -2 112 -22 134 -29 32 -64 39 -111 22z"/>
<path d="M12228 10032 c-45 -5 -85 -51 -93 -106 -16 -104 29 -166 121 -166 45
0 59 5 86 29 32 28 33 32 33 105 0 68 -3 78 -26 101 -27 28 -76 43 -121 37z
m81 -68 c48 -61 14 -164 -55 -164 -28 0 -38 6 -55 33 -24 38 -21 107 6 137 27
30 79 26 104 -6z"/>
<path d="M13700 10032 c-14 -2 -33 -11 -42 -19 -16 -15 -18 -15 -18 0 0 10 -8
17 -20 17 -19 0 -20 -7 -20 -136 0 -135 0 -135 23 -132 21 3 22 8 25 98 3 105
15 130 63 130 46 0 59 -31 59 -137 0 -93 0 -93 25 -93 25 0 25 1 25 88 0 88
-13 156 -31 167 -19 12 -64 21 -89 17z"/>
<path d="M13975 10032 c-75 -13 -105 -54 -105 -147 0 -51 3 -60 34 -91 29 -29
41 -34 80 -34 83 0 116 30 131 120 8 44 -18 113 -48 133 -25 16 -63 24 -92 19z
m55 -52 c27 -15 42 -76 29 -122 -16 -59 -72 -77 -116 -36 -31 29 -33 118 -3
148 22 22 60 26 90 10z"/>
<path d="M14265 10033 c-11 -3 -28 -12 -37 -21 -16 -14 -18 -14 -18 1 0 11 -8
17 -25 17 l-26 0 3 -132 c3 -127 4 -133 25 -136 20 -3 21 1 25 91 3 106 19
137 68 137 43 0 53 -22 58 -130 4 -89 7 -100 23 -100 17 0 19 9 19 115 0 102
-2 117 -20 135 -11 11 -26 20 -34 20 -8 0 -20 2 -28 4 -7 2 -22 1 -33 -1z"/>
<path d="M14514 10024 c-22 -8 -40 -14 -41 -14 -13 -1 -33 -71 -33 -115 0 -95
37 -135 124 -135 33 0 49 6 70 26 14 15 26 30 26 35 0 4 3 14 6 23 5 12 0 16
-17 16 -16 0 -30 -10 -41 -30 -13 -23 -24 -30 -48 -30 -48 0 -70 30 -70 95 0
42 5 60 20 75 29 29 74 26 97 -6 19 -26 53 -25 53 1 0 48 -82 81 -146 59z"/>
<path d="M14783 10030 c-42 -9 -63 -27 -80 -67 -27 -65 -9 -154 38 -187 15
-10 44 -16 77 -16 46 0 58 4 83 29 16 16 29 37 29 45 0 25 -40 19 -62 -9 -36
-46 -104 -29 -122 33 -7 22 -6 22 95 22 l102 0 -7 41 c-9 53 -40 97 -74 105
-15 3 -31 7 -37 8 -5 1 -25 -1 -42 -4z m79 -57 c10 -9 18 -24 18 -35 0 -16 -8
-18 -65 -18 -54 0 -65 3 -65 17 0 46 74 71 112 36z"/>
<path d="M10050 10027 c0 -3 22 -64 50 -136 44 -114 48 -134 38 -156 -7 -16
-23 -28 -40 -32 -18 -3 -28 -12 -28 -23 0 -39 66 -31 94 12 16 25 126 311 126
328 0 6 -10 10 -22 10 -20 0 -28 -14 -59 -101 l-35 -102 -36 99 c-31 89 -38
99 -61 102 -15 2 -27 1 -27 -1z"/>
<path d="M11610 9894 c0 -135 0 -135 23 -132 21 3 22 7 25 136 l3 132 -26 0
-25 0 0 -136z"/>
<path d="M12900 9790 c0 -25 4 -30 25 -30 21 0 25 5 25 30 0 25 -4 30 -25 30
-21 0 -25 -5 -25 -30z"/>
<path d="M13047 9814 c-4 -4 -7 -18 -7 -31 0 -19 5 -23 31 -23 27 0 30 3 27
28 -3 26 -34 43 -51 26z"/>
<path d="M13187 9814 c-4 -4 -7 -18 -7 -31 0 -19 5 -23 31 -23 27 0 30 3 27
28 -3 26 -34 43 -51 26z"/>
<path d="M13327 9814 c-13 -14 -7 -54 8 -54 20 0 19 -15 -1 -35 -13 -13 -14
-19 -5 -28 10 -9 17 -7 32 12 28 34 23 105 -6 109 -12 2 -24 0 -28 -4z"/>
<path d="M6380 9500 l-175 -88 45 -20 c25 -11 100 -45 168 -76 68 -31 128 -56
133 -56 5 0 9 27 9 60 l0 60 5895 0 5895 0 0 30 0 30 -5895 0 -5894 0 -3 74
-3 74 -175 -88z"/>
<path d="M1449 8661 c-49 -16 -67 -31 -78 -64 -22 -65 14 -110 105 -134 84
-21 114 -39 114 -67 0 -79 -154 -84 -183 -6 -7 19 -17 28 -25 25 -8 -3 -18 -5
-23 -5 -14 0 -11 -29 8 -61 24 -40 70 -59 143 -59 57 0 65 3 96 34 67 67 35
150 -66 176 -87 22 -110 32 -120 51 -16 28 28 69 73 69 37 0 87 -32 87 -56 0
-8 10 -14 25 -14 29 0 32 17 10 59 -21 42 -110 70 -166 52z"/>
<path d="M4120 8663 c-32 -12 -50 -37 -50 -70 0 -26 -4 -33 -20 -33 -13 0 -20
-7 -20 -20 0 -13 7 -20 20 -20 19 0 20 -7 20 -115 l0 -115 25 0 25 0 0 115 0
115 25 0 c18 0 25 5 25 20 0 15 -7 20 -26 20 -22 0 -25 4 -22 28 2 21 9 28 30
30 22 3 46 28 36 38 -8 7 -55 12 -68 7z"/>
<path d="M10285 8663 c-29 -7 -45 -32 -45 -70 0 -26 -4 -33 -20 -33 -13 0 -20
-7 -20 -20 0 -13 7 -20 20 -20 19 0 20 -7 20 -115 l0 -115 25 0 25 0 0 115 0
115 25 0 c18 0 25 5 25 20 0 15 -7 20 -26 20 -22 0 -25 4 -22 28 2 21 9 28 29
30 35 4 46 38 15 46 -11 3 -23 5 -26 5 -3 -1 -14 -3 -25 -6z"/>
<path d="M1700 8635 c0 -20 5 -25 25 -25 20 0 25 5 25 25 0 20 -5 25 -25 25
-20 0 -25 -5 -25 -25z"/>
<path d="M3660 8635 c0 -20 5 -25 25 -25 20 0 25 5 25 25 0 20 -5 25 -25 25
-20 0 -25 -5 -25 -25z"/>
<path d="M4630 8635 c0 -20 5 -25 25 -25 20 0 25 5 25 25 0 20 -5 25 -25 25
-20 0 -25 -5 -25 -25z"/>
<path d="M5280 8475 l0 -185 25 0 25 0 0 185 0 185 -25 0 -25 0 0 -185z"/>
<path d="M5850 8600 c0 -60 -6 -70 -27 -49 -14 14 -75 14 -102 0 -70 -38 -73
-201 -5 -246 27 -17 86 -20 115 -5 13 7 19 7 19 0 0 -5 11 -10 25 -10 l25 0 0
185 0 185 -25 0 c-24 0 -25 -3 -25 -60z m-21 -106 c46 -58 14 -164 -49 -164
-39 0 -63 38 -63 95 0 87 66 128 112 69z"/>
<path d="M5960 8635 c0 -20 5 -25 25 -25 20 0 25 5 25 25 0 20 -5 25 -25 25
-20 0 -25 -5 -25 -25z"/>
<path d="M7350 8635 c0 -20 5 -25 25 -25 20 0 25 5 25 25 0 20 -5 25 -25 25
-20 0 -25 -5 -25 -25z"/>
<path d="M9000 8635 c0 -20 5 -25 25 -25 20 0 25 5 25 25 0 20 -5 25 -25 25
-20 0 -25 -5 -25 -25z"/>
<path d="M9290 8600 c0 -60 -6 -70 -27 -49 -17 17 -80 13 -109 -6 -70 -45 -70
-192 0 -240 24 -17 89 -20 117 -5 13 7 19 7 19 0 0 -5 9 -10 20 -10 19 0 20 7
20 185 0 178 -1 185 -20 185 -18 0 -20 -7 -20 -60z m-25 -100 c10 -11 20 -41
22 -67 6 -59 -22 -103 -66 -103 -39 0 -63 31 -68 87 -4 39 -1 53 17 76 26 33
69 36 95 7z"/>
<path d="M10110 8635 c0 -20 5 -25 25 -25 20 0 25 5 25 25 0 20 -5 25 -25 25
-20 0 -25 -5 -25 -25z"/>
<path d="M10370 8635 c0 -20 5 -25 25 -25 20 0 25 5 25 25 0 20 -5 25 -25 25
-20 0 -25 -5 -25 -25z"/>
<path d="M8488 8636 c-11 -8 -18 -26 -18 -45 0 -21 -5 -31 -15 -31 -8 0 -15
-9 -15 -20 0 -11 7 -20 15 -20 12 0 15 -17 15 -93 0 -111 12 -137 66 -137 27
0 34 4 34 19 0 12 -9 21 -25 25 -24 6 -25 9 -25 96 l0 90 26 0 c33 0 30 33 -4
38 -19 3 -22 9 -22 48 0 47 -5 51 -32 30z"/>
<path d="M9998 8639 c-12 -6 -18 -22 -18 -44 0 -24 -5 -35 -15 -35 -8 0 -15
-9 -15 -20 0 -11 7 -20 15 -20 12 0 15 -18 15 -103 0 -67 4 -107 12 -115 13
-13 88 -17 88 -4 0 13 -15 28 -32 35 -15 5 -18 20 -18 97 0 83 1 90 20 90 13
0 20 7 20 20 0 13 -7 20 -20 20 -17 0 -20 7 -20 45 0 47 -4 51 -32 34z"/>
<path d="M1889 8562 c-15 -2 -39 -16 -55 -33 -35 -37 -46 -127 -20 -177 28
-54 88 -73 149 -47 14 6 17 2 17 -18 0 -29 -23 -56 -48 -58 -38 -3 -58 3 -71
22 -17 24 -51 25 -51 2 2 -74 147 -93 199 -26 19 23 21 40 21 179 0 147 -1
154 -20 154 -11 0 -20 -5 -20 -11 0 -5 -5 -7 -10 -4 -19 12 -65 21 -91 17z
m81 -74 c34 -56 19 -128 -30 -148 -53 -22 -90 16 -90 92 0 85 80 122 120 56z"/>
<path d="M2200 8562 c-14 -2 -33 -11 -42 -19 -16 -15 -18 -15 -18 0 0 10 -8
17 -20 17 -19 0 -20 -7 -20 -136 0 -135 0 -135 23 -132 21 3 22 8 25 98 3 105
15 130 63 130 46 0 59 -31 59 -137 0 -93 0 -93 25 -93 25 0 25 1 25 88 0 88
-13 156 -31 167 -19 12 -64 21 -89 17z"/>
<path d="M2602 8559 c-66 -14 -98 -72 -89 -162 3 -41 11 -56 36 -79 58 -52
168 -31 197 37 26 62 12 150 -29 183 -23 20 -77 29 -115 21z m83 -59 c27 -30
30 -99 6 -137 -27 -44 -79 -46 -110 -7 -48 61 -14 164 53 164 20 0 40 -8 51
-20z"/>
<path d="M3143 8560 c-42 -9 -63 -27 -80 -67 -27 -65 -9 -154 38 -187 15 -10
44 -16 77 -16 46 0 58 4 83 29 16 16 29 37 29 45 0 25 -40 19 -62 -9 -36 -46
-104 -29 -122 33 -7 22 -6 22 95 22 l102 0 -7 41 c-9 53 -40 97 -74 105 -15 3
-31 7 -37 8 -5 1 -25 -1 -42 -4z m79 -57 c10 -9 18 -24 18 -35 0 -16 -8 -18
-65 -18 -54 0 -65 3 -65 17 0 46 74 71 112 36z"/>
<path d="M3419 8552 c-16 -11 -24 -12 -27 -4 -2 7 -12 12 -23 12 -18 0 -19 -9
-19 -135 l0 -135 25 0 c25 0 25 0 25 95 0 80 3 98 19 114 12 12 27 17 39 14
14 -3 24 2 32 16 11 22 10 23 -36 36 -7 2 -22 -4 -35 -13z"/>
<path d="M3875 8563 c-11 -3 -28 -12 -37 -21 -16 -14 -18 -14 -18 1 0 11 -8
17 -25 17 l-26 0 3 -132 c3 -127 4 -133 25 -136 20 -3 21 1 25 91 3 106 19
137 68 137 43 0 53 -22 58 -130 4 -89 7 -100 23 -100 17 0 19 9 19 115 0 102
-2 117 -20 135 -11 11 -26 20 -34 20 -8 0 -20 2 -28 4 -7 2 -22 1 -33 -1z"/>
<path d="M4265 8555 c-45 -16 -61 -34 -75 -85 -13 -48 -13 -63 6 -109 21 -52
51 -71 115 -71 45 0 55 4 85 34 32 32 34 38 34 99 0 56 -4 70 -25 96 -23 27
-37 34 -85 46 -8 2 -33 -2 -55 -10z m92 -57 c49 -46 18 -168 -43 -168 -39 0
-61 17 -74 55 -31 95 51 175 117 113z"/>
<path d="M4836 8559 c-15 -4 -34 -13 -42 -20 -11 -9 -14 -8 -14 5 0 9 -8 16
-20 16 -19 0 -20 -7 -20 -135 l0 -135 25 0 c25 0 25 0 25 95 0 82 3 98 20 115
24 24 63 26 84 4 12 -12 16 -38 16 -115 l0 -99 26 0 26 0 -4 114 c-2 93 -6
118 -21 134 -21 23 -61 31 -101 21z"/>
<path d="M5103 8560 c-42 -9 -63 -27 -80 -67 -27 -65 -9 -154 38 -187 14 -9
43 -16 72 -16 40 0 53 5 78 29 34 34 39 71 9 71 -10 0 -25 -10 -31 -22 -16
-30 -28 -38 -60 -38 -41 0 -64 34 -64 95 0 65 22 95 72 95 26 0 36 -6 45 -25
12 -26 24 -30 47 -16 10 6 10 13 3 28 -23 43 -75 64 -129 53z"/>
<path d="M6180 8562 c-14 -2 -33 -11 -42 -19 -16 -15 -18 -15 -18 0 0 10 -8
17 -20 17 -19 0 -20 -7 -20 -136 0 -135 0 -135 23 -132 21 3 22 8 25 98 3 105
15 130 63 130 46 0 59 -31 59 -137 0 -93 0 -93 25 -93 25 0 25 1 25 88 0 88
-13 156 -31 167 -19 12 -64 21 -89 17z"/>
<path d="M6423 8559 c-59 -17 -92 -91 -74 -168 18 -80 92 -123 153 -88 27 16
28 15 28 -7 0 -61 -84 -93 -121 -48 -9 12 -27 22 -39 22 -17 0 -20 -4 -15 -22
14 -48 53 -65 130 -59 80 7 95 44 95 231 l0 140 -25 0 c-14 0 -25 -5 -25 -11
0 -8 -4 -8 -12 -2 -21 17 -61 21 -95 12z m87 -61 c22 -24 28 -95 10 -128 -42
-79 -148 -13 -125 78 17 72 72 96 115 50z"/>
<path d="M7157 8555 c-20 -7 -40 -9 -43 -4 -3 5 -14 9 -25 9 -18 0 -19 -8 -19
-135 l0 -135 25 0 c25 0 25 0 25 95 0 107 14 135 68 135 46 0 52 -15 52 -127
l0 -103 25 0 25 0 0 109 c0 100 -2 112 -22 134 -29 32 -64 39 -111 22z"/>
<path d="M7530 8556 c-54 -17 -76 -71 -71 -168 0 -15 15 -43 32 -63 26 -29 38
-35 71 -35 21 0 48 5 59 10 18 10 19 7 19 -50 0 -57 1 -60 25 -60 l25 0 0 185
0 185 -25 0 c-14 0 -25 -5 -25 -11 0 -5 -5 -7 -10 -4 -27 17 -68 22 -100 11z
m94 -68 c33 -47 13 -143 -31 -155 -63 -15 -106 56 -81 133 22 66 75 76 112 22z"/>
<path d="M8113 8559 c-44 -9 -59 -23 -79 -74 -23 -61 -12 -128 26 -167 24 -23
37 -28 79 -28 62 0 93 13 114 49 27 47 -14 59 -51 16 -37 -43 -101 -30 -120
25 l-11 30 100 0 99 0 0 25 c0 33 -22 86 -43 103 -23 20 -77 29 -114 21z m86
-65 c11 -15 18 -30 15 -35 -3 -5 -34 -9 -70 -9 -53 0 -64 3 -64 17 0 53 83 72
119 27z"/>
<path d="M9481 8559 c-18 -4 -45 -19 -60 -33 -23 -24 -26 -34 -26 -102 0 -73
1 -77 33 -105 27 -25 41 -29 88 -29 48 0 59 4 85 29 16 16 29 37 29 45 0 25
-40 19 -62 -9 -27 -35 -79 -34 -107 1 -38 48 -30 54 74 54 l95 0 0 38 c0 79
-66 128 -149 111z m83 -61 c29 -41 21 -48 -54 -48 -38 0 -70 3 -70 6 0 11 23
49 34 56 24 16 75 8 90 -14z"/>
<path d="M9790 8562 c-14 -2 -33 -11 -42 -19 -16 -15 -18 -15 -18 0 0 10 -8
17 -20 17 -19 0 -20 -7 -20 -136 0 -135 0 -135 23 -132 21 3 22 8 25 98 3 105
15 130 63 130 46 0 59 -31 59 -137 0 -93 0 -93 25 -93 25 0 25 1 25 88 0 88
-13 156 -31 167 -19 12 -64 21 -89 17z"/>
<path d="M10561 8559 c-18 -4 -45 -19 -60 -33 -23 -24 -26 -34 -26 -102 0 -73
1 -77 33 -105 27 -25 41 -29 88 -29 48 0 59 4 85 29 16 16 29 37 29 45 0 25
-40 19 -62 -9 -27 -35 -79 -34 -107 1 -38 48 -30 54 74 54 l95 0 0 38 c0 79
-66 128 -149 111z m83 -61 c29 -41 21 -48 -54 -48 -38 0 -70 3 -70 6 0 11 23
49 34 56 24 16 75 8 90 -14z"/>
<path d="M10835 8554 c-14 -7 -25 -9 -25 -3 0 5 -9 9 -20 9 -19 0 -20 -7 -20
-135 0 -125 1 -135 19 -135 16 0 19 11 24 96 6 106 16 126 64 128 21 1 29 7
31 22 4 27 -37 37 -73 18z"/>
<path d="M1700 8425 l0 -135 25 0 25 0 0 135 0 135 -25 0 -25 0 0 -135z"/>
<path d="M2798 8513 c11 -26 34 -87 52 -135 28 -76 36 -88 56 -88 24 0 21 -5
95 193 l29 78 -27 -3 c-23 -3 -30 -13 -61 -102 l-36 -98 -35 98 c-33 90 -39
99 -64 102 l-27 3 18 -48z"/>
<path d="M3660 8425 l0 -135 25 0 25 0 0 135 0 135 -25 0 -25 0 0 -135z"/>
<path d="M4630 8424 c0 -135 0 -135 23 -132 21 3 22 7 25 136 l3 132 -26 0
-25 0 0 -136z"/>
<path d="M5390 8466 c0 -101 12 -151 40 -166 28 -15 93 -12 118 6 20 14 22 14
22 0 0 -9 9 -16 20 -16 19 0 20 7 20 135 l0 135 -25 0 c-25 0 -25 0 -25 -95 0
-82 -3 -98 -20 -115 -27 -27 -65 -26 -84 2 -12 16 -16 47 -16 115 0 93 0 93
-25 93 -25 0 -25 0 -25 -94z"/>
<path d="M5960 8425 l0 -135 25 0 25 0 0 135 0 135 -25 0 -25 0 0 -135z"/>
<path d="M6790 8445 c0 -102 2 -117 20 -135 25 -25 95 -27 128 -4 20 14 22 14
22 0 0 -9 9 -16 20 -16 19 0 20 7 20 135 0 125 -1 135 -19 135 -17 0 -19 -10
-23 -94 -5 -110 -20 -139 -72 -134 -43 4 -56 36 -56 141 0 80 -2 87 -20 87
-19 0 -20 -7 -20 -115z"/>
<path d="M7350 8425 l0 -135 25 0 25 0 0 135 0 135 -25 0 -25 0 0 -135z"/>
<path d="M7750 8466 c0 -101 12 -151 40 -166 28 -15 93 -12 118 6 20 14 22 14
22 0 0 -9 9 -16 20 -16 19 0 20 7 20 135 l0 135 -25 0 c-25 0 -25 0 -25 -95 0
-82 -3 -98 -20 -115 -27 -27 -65 -26 -84 2 -12 16 -16 47 -16 115 0 93 0 93
-25 93 -25 0 -25 0 -25 -94z"/>
<path d="M8590 8554 c0 -3 18 -32 41 -65 l40 -60 -45 -64 c-25 -35 -46 -66
-46 -69 0 -3 12 -6 28 -6 21 0 34 11 60 51 l34 51 34 -51 c29 -43 40 -51 65
-51 l30 0 -49 72 -50 71 37 51 c56 77 56 76 23 76 -23 0 -35 -9 -57 -40 -15
-22 -31 -40 -34 -40 -3 0 -17 18 -31 40 -19 31 -31 40 -52 40 -16 0 -28 -2
-28 -6z"/>
<path d="M9000 8425 l0 -135 25 0 25 0 0 135 0 135 -25 0 -25 0 0 -135z"/>
<path d="M10110 8425 l0 -135 25 0 25 0 0 135 0 135 -25 0 -25 0 0 -135z"/>
<path d="M10370 8424 c0 -135 0 -135 23 -132 21 3 22 7 25 136 l3 132 -26 0
-25 0 0 -136z"/>
<path d="M6510 8020 c-129 -8 -381 -39 -392 -49 -3 -3 -4 -17 -1 -31 l5 -26
126 18 c602 85 1106 -5 1244 -221 51 -81 31 -161 -59 -240 -124 -110 -350
-173 -663 -186 -131 -6 -384 5 -395 17 -2 1 2 29 7 61 6 32 8 61 4 64 -6 6
-345 -94 -358 -106 -6 -5 270 -196 302 -209 4 -2 13 25 19 59 6 34 12 63 13
64 2 1 73 -2 158 -8 247 -17 553 14 724 73 213 73 336 192 336 324 -1 167
-178 300 -480 362 -97 20 -389 47 -455 42 -11 0 -72 -4 -135 -8z"/>
<path d="M6811 6230 c-46 -11 -72 -40 -78 -88 -5 -34 -1 -44 20 -66 14 -14 51
-32 83 -41 96 -27 114 -36 120 -62 10 -40 -26 -68 -85 -68 -52 0 -86 20 -102
62 -6 15 -14 20 -28 16 -25 -6 -26 -24 -6 -63 24 -46 66 -63 148 -58 63 3 72
7 98 36 48 53 35 124 -29 156 -15 7 -49 19 -77 25 -91 22 -115 51 -75 91 29
29 94 27 125 -5 14 -13 25 -29 25 -35 0 -5 11 -10 25 -10 18 0 25 5 25 19 0
21 -33 67 -58 80 -27 14 -94 20 -131 11z"/>
<path d="M11645 6216 c-22 -22 -25 -34 -25 -91 0 -57 -3 -69 -25 -91 -14 -14
-25 -31 -25 -39 0 -8 11 -25 25 -39 21 -22 25 -34 25 -89 0 -75 18 -106 65
-110 38 -3 48 29 12 42 -28 11 -37 36 -37 102 0 31 -7 55 -20 71 -19 25 -19
26 0 43 15 14 20 31 20 71 0 66 12 100 40 107 14 4 21 12 18 24 -5 28 -44 28
-73 -1z"/>
<path d="M17450 6215 c0 -18 5 -25 20 -25 22 0 27 -15 33 -102 2 -34 10 -65
20 -75 14 -17 14 -20 -4 -42 -14 -17 -19 -39 -19 -81 0 -71 -6 -90 -31 -90
-14 0 -19 -7 -19 -25 0 -31 27 -33 62 -5 22 17 26 29 30 97 5 68 8 79 32 98
32 26 33 34 0 60 -21 17 -26 31 -30 85 -7 95 -11 105 -39 118 -40 18 -55 15
-55 -13z"/>
<path d="M7070 6205 c0 -20 5 -25 25 -25 20 0 25 5 25 25 0 20 -5 25 -25 25
-20 0 -25 -5 -25 -25z"/>
<path d="M8200 6169 c0 -53 -2 -60 -15 -49 -8 7 -34 12 -57 12 -59 -1 -99 -42
-106 -110 -9 -99 34 -162 112 -162 23 0 48 6 55 13 11 10 14 10 18 0 3 -7 13
-13 24 -13 18 0 19 9 19 185 l0 185 -25 0 c-24 0 -25 -3 -25 -61z m-14 -105
c40 -61 12 -164 -46 -164 -70 0 -99 141 -36 182 25 17 66 8 82 -18z"/>
<path d="M8566 6221 c-8 -12 -136 -350 -136 -357 0 -3 12 -4 26 -2 22 2 30 12
47 56 l20 53 76 -3 75 -3 21 -52 c17 -47 23 -53 48 -53 18 0 27 5 25 13 -2 7
-34 90 -73 185 -66 162 -71 172 -97 172 -15 0 -29 -4 -32 -9z m59 -124 c14
-37 25 -72 25 -77 0 -6 -25 -10 -56 -10 -41 0 -55 3 -51 13 2 6 15 42 27 80
13 37 24 66 26 64 2 -2 15 -33 29 -70z"/>
<path d="M9230 6045 l0 -185 25 0 c25 0 25 0 25 95 0 82 3 98 20 115 24 24 63
26 84 4 12 -12 16 -38 16 -115 l0 -99 26 0 26 0 -4 115 c-3 100 -6 117 -24
135 -24 24 -88 30 -122 11 -21 -11 -22 -10 -22 49 0 57 -1 60 -25 60 l-25 0 0
-185z"/>
<path d="M9970 6205 c0 -20 5 -25 25 -25 20 0 25 5 25 25 0 20 -5 25 -25 25
-20 0 -25 -5 -25 -25z"/>
<path d="M10760 6205 c0 -20 5 -25 25 -25 20 0 25 5 25 25 0 20 -5 25 -25 25
-20 0 -25 -5 -25 -25z"/>
<path d="M12070 6170 c0 -60 -6 -70 -27 -49 -14 14 -75 14 -102 0 -70 -38 -73
-201 -5 -246 27 -17 86 -20 115 -5 13 7 19 7 19 0 0 -5 11 -10 25 -10 l25 0 0
185 0 185 -25 0 c-24 0 -25 -3 -25 -60z m-21 -106 c46 -58 14 -164 -49 -164
-39 0 -63 38 -63 95 0 87 66 128 112 69z"/>
<path d="M13160 6205 c0 -24 3 -25 60 -25 l60 0 0 -160 0 -160 25 0 25 0 0
160 0 160 60 0 c57 0 60 1 60 25 l0 25 -145 0 -145 0 0 -25z"/>
<path d="M13750 6046 l0 -186 30 0 30 0 0 85 0 85 90 0 90 0 0 -85 c0 -84 0
-85 25 -85 l25 0 0 185 0 185 -25 0 c-24 0 -25 -2 -25 -75 l0 -75 -90 0 -89 0
-3 73 c-3 70 -4 72 -30 75 l-28 3 0 -185z"/>
<path d="M14652 6048 c3 -179 4 -183 25 -186 20 -3 21 1 25 91 3 106 19 137
68 137 44 0 54 -23 58 -131 4 -89 6 -99 23 -99 17 0 19 9 19 111 0 61 -5 119
-10 129 -18 33 -118 47 -136 19 -14 -24 -24 -3 -24 51 0 57 -1 60 -25 60 l-25
0 2 -182z"/>
<path d="M15480 6205 c0 -20 5 -25 25 -25 20 0 25 5 25 25 0 20 -5 25 -25 25
-20 0 -25 -5 -25 -25z"/>
<path d="M9118 6209 c-12 -7 -18 -22 -18 -44 0 -28 -4 -35 -20 -35 -13 0 -20
-7 -20 -20 0 -13 7 -20 20 -20 19 0 20 -7 20 -103 0 -114 6 -127 57 -127 25 0
33 4 33 18 0 9 -10 22 -22 27 -21 9 -23 18 -26 98 l-3 87 26 0 c18 0 25 5 25
20 0 15 -7 20 -24 20 -22 0 -25 5 -28 44 -3 39 -5 44 -20 35z"/>
<path d="M10648 6206 c-11 -8 -18 -26 -18 -45 0 -21 -5 -31 -15 -31 -8 0 -15
-9 -15 -20 0 -11 7 -20 15 -20 12 0 15 -18 15 -99 0 -113 9 -131 66 -131 41 0
47 26 9 40 -24 9 -25 13 -25 100 0 83 1 90 20 90 13 0 20 7 20 20 0 13 -7 20
-20 20 -17 0 -20 7 -20 45 0 48 -5 52 -32 31z"/>
<path d="M12498 6209 c-12 -6 -18 -22 -18 -44 0 -24 -5 -35 -15 -35 -8 0 -15
-9 -15 -20 0 -11 7 -20 15 -20 12 0 15 -18 15 -103 0 -67 4 -107 12 -115 13
-13 88 -17 88 -4 0 13 -15 28 -32 35 -15 5 -18 20 -18 97 0 83 1 90 20 90 13
0 20 7 20 20 0 13 -7 20 -20 20 -17 0 -20 7 -20 45 0 47 -4 51 -32 34z"/>
<path d="M16468 6206 c-11 -8 -18 -26 -18 -45 0 -21 -5 -31 -15 -31 -8 0 -15
-9 -15 -20 0 -11 7 -20 15 -20 12 0 15 -17 15 -93 0 -111 12 -137 66 -137 27
0 34 4 34 19 0 12 -9 21 -25 25 -24 6 -25 9 -25 96 l0 90 26 0 c33 0 30 33 -4
38 -19 3 -22 9 -22 48 0 47 -5 51 -32 30z"/>
<path d="M7275 6134 c-5 -1 -23 -5 -38 -8 -40 -9 -67 -59 -67 -126 0 -110 71
-165 163 -125 13 6 17 2 17 -17 0 -34 -30 -58 -73 -58 -26 0 -41 6 -49 20 -7
11 -22 20 -34 20 -17 0 -20 -5 -16 -26 7 -36 43 -56 102 -56 57 0 96 20 110
58 6 14 10 90 10 170 0 135 -1 144 -19 144 -11 0 -21 -6 -24 -12 -3 -10 -7
-10 -18 -2 -16 13 -49 22 -64 18z m54 -58 c36 -43 30 -132 -12 -161 -30 -21
-44 -19 -72 10 -20 19 -25 34 -25 72 0 63 21 93 64 93 19 0 39 -6 45 -14z"/>
<path d="M7570 6132 c-14 -2 -33 -11 -42 -19 -16 -15 -18 -15 -18 0 0 10 -8
17 -20 17 -19 0 -20 -7 -20 -136 0 -135 0 -135 23 -132 21 3 22 8 25 98 3 105
15 130 63 130 46 0 59 -31 59 -137 0 -93 0 -93 25 -93 25 0 25 1 25 88 0 88
-13 156 -31 167 -19 12 -64 21 -89 17z"/>
<path d="M7831 6129 c-18 -4 -45 -19 -60 -33 -23 -24 -26 -34 -26 -102 0 -73
1 -77 33 -105 27 -25 41 -29 88 -29 48 0 59 4 85 29 16 16 29 37 29 45 0 25
-40 19 -62 -9 -27 -35 -79 -34 -107 1 -38 48 -30 54 74 54 l95 0 0 38 c0 79
-66 128 -149 111z m83 -61 c29 -41 21 -48 -54 -48 -38 0 -70 3 -70 6 0 11 23
49 34 56 24 16 75 8 90 -14z"/>
<path d="M9605 6132 c-75 -13 -105 -54 -105 -147 0 -51 3 -60 34 -91 29 -29
41 -34 80 -34 83 0 116 30 131 120 8 44 -18 113 -48 133 -25 16 -63 24 -92 19z
m55 -52 c27 -15 42 -76 29 -122 -16 -59 -72 -77 -116 -36 -31 29 -33 118 -3
148 22 22 60 26 90 10z"/>
<path d="M9865 6124 c-14 -7 -25 -9 -25 -3 0 5 -9 9 -20 9 -19 0 -20 -7 -20
-135 0 -125 1 -135 19 -135 16 0 19 11 24 96 6 106 16 126 64 128 21 1 29 7
31 22 4 27 -37 37 -73 18z"/>
<path d="M10425 6133 c-45 -9 -73 -26 -84 -49 -15 -33 -15 -34 14 -34 14 0 29
8 35 20 8 15 21 20 48 20 42 0 56 -7 65 -33 8 -21 -16 -33 -87 -42 -87 -12
-123 -78 -71 -130 19 -20 34 -25 72 -25 28 0 58 7 71 16 20 14 23 14 28 0 3
-9 17 -16 31 -16 20 0 24 4 18 18 -3 9 -9 55 -11 102 -7 110 -11 128 -32 138
-23 12 -73 20 -97 15z m80 -170 c-11 -48 -41 -68 -97 -64 -10 0 -22 9 -27 20
-15 28 7 50 59 60 73 14 73 14 65 -16z"/>
<path d="M10958 6132 c-45 -5 -85 -51 -93 -106 -16 -104 29 -166 121 -166 45
0 59 5 86 29 32 28 33 32 33 105 0 68 -3 78 -26 101 -27 28 -76 43 -121 37z
m81 -68 c48 -61 14 -164 -55 -164 -28 0 -38 6 -55 33 -24 38 -21 107 6 137 27
30 79 26 104 -6z"/>
<path d="M11247 6125 c-20 -7 -40 -9 -43 -4 -3 5 -14 9 -25 9 -18 0 -19 -8
-19 -135 l0 -135 25 0 c25 0 25 0 25 95 0 107 14 135 68 135 46 0 52 -15 52
-127 l0 -103 25 0 25 0 0 109 c0 100 -2 112 -22 134 -29 32 -64 39 -111 22z"/>
<path d="M12263 6133 c-35 -5 -83 -44 -83 -68 0 -22 43 -19 58 5 14 23 80 28
100 8 24 -24 14 -47 -25 -53 -111 -19 -143 -41 -143 -95 0 -45 33 -70 93 -70
30 0 62 6 74 15 19 13 22 13 27 0 3 -8 17 -15 30 -15 23 0 25 2 16 26 -6 14
-10 66 -10 115 0 76 -3 92 -20 109 -11 11 -29 20 -39 20 -11 0 -25 2 -33 3 -7
2 -27 2 -45 0z m87 -164 c0 -33 -17 -56 -51 -68 -26 -9 -37 -8 -56 4 -54 35
-16 67 100 84 4 1 7 -8 7 -20z"/>
<path d="M12686 6130 c-40 -7 -76 -39 -76 -66 0 -21 43 -17 58 6 9 14 23 20
50 20 41 0 62 -14 62 -41 0 -17 -7 -20 -91 -34 -80 -13 -118 -86 -69 -135 25
-25 97 -27 140 -5 27 14 30 14 30 0 0 -9 9 -15 23 -15 23 0 23 2 20 93 -5 124
-11 155 -31 165 -28 15 -75 19 -116 12z m94 -161 c0 -32 -17 -56 -49 -67 -38
-13 -69 -5 -76 20 -9 27 10 46 58 57 62 13 67 13 67 -10z"/>
<path d="M14193 6133 c-35 -5 -83 -44 -83 -68 0 -22 43 -19 58 5 14 23 80 28
100 8 24 -24 14 -47 -25 -53 -111 -19 -143 -41 -143 -95 0 -45 33 -70 93 -70
30 0 62 6 74 15 19 13 22 13 27 0 3 -8 17 -15 30 -15 23 0 25 2 16 26 -6 14
-10 66 -10 115 0 76 -3 92 -20 109 -11 11 -29 20 -39 20 -11 0 -25 2 -33 3 -7
2 -27 2 -45 0z m87 -164 c0 -33 -17 -56 -51 -68 -26 -9 -37 -8 -56 4 -54 35
-16 67 100 84 4 1 7 -8 7 -20z"/>
<path d="M14460 6133 c-37 -7 -70 -42 -70 -75 0 -37 29 -64 82 -78 56 -14 72
-23 76 -45 9 -42 -75 -49 -107 -9 -23 30 -58 29 -53 -1 6 -39 49 -65 106 -65
72 0 106 26 106 80 0 45 -17 61 -90 81 -54 15 -75 32 -67 53 10 25 81 21 98
-5 15 -22 49 -18 49 7 0 20 -37 54 -59 54 -11 0 -25 2 -33 4 -7 2 -24 1 -38
-1z"/>
<path d="M15281 6129 c-44 -9 -64 -31 -64 -69 0 -42 26 -65 96 -84 60 -18 78
-36 57 -61 -24 -29 -110 -12 -110 20 0 9 -10 15 -25 15 -33 0 -33 -28 0 -64
21 -22 32 -26 83 -26 49 0 64 4 86 25 27 25 34 62 16 95 -6 12 -37 27 -80 40
-75 22 -88 33 -70 55 19 23 76 19 94 -6 10 -15 20 -19 35 -14 26 8 26 16 4 44
-22 27 -76 40 -122 30z"/>
<path d="M15685 6134 c-5 -1 -23 -5 -38 -8 -40 -9 -67 -59 -67 -126 0 -110 71
-165 163 -125 13 6 17 2 17 -17 0 -34 -30 -58 -73 -58 -26 0 -41 6 -49 20 -7
11 -22 20 -34 20 -17 0 -20 -5 -16 -26 7 -36 43 -56 102 -56 57 0 96 20 110
58 6 14 10 90 10 170 0 135 -1 144 -19 144 -11 0 -21 -6 -24 -12 -3 -10 -7
-10 -18 -2 -16 13 -49 22 -64 18z m54 -58 c36 -43 30 -132 -12 -161 -30 -21
-44 -19 -72 10 -20 19 -25 34 -25 72 0 63 21 93 64 93 19 0 39 -6 45 -14z"/>
<path d="M15980 6132 c-14 -2 -33 -11 -42 -19 -16 -15 -18 -15 -18 0 0 10 -8
17 -20 17 -19 0 -20 -7 -20 -136 0 -135 0 -135 23 -132 21 3 22 8 25 98 3 105
15 130 63 130 46 0 59 -31 59 -137 0 -93 0 -93 25 -93 25 0 25 1 25 88 0 88
-13 156 -31 167 -19 12 -64 21 -89 17z"/>
<path d="M16236 6130 c-40 -7 -76 -39 -76 -66 0 -21 43 -17 58 6 9 14 23 20
50 20 41 0 62 -14 62 -41 0 -17 -7 -20 -91 -34 -80 -13 -118 -86 -69 -135 25
-25 97 -27 140 -5 27 14 30 14 30 0 0 -9 9 -15 23 -15 23 0 23 2 20 93 -5 124
-11 155 -31 165 -28 15 -75 19 -116 12z m94 -161 c0 -32 -17 -56 -49 -67 -38
-13 -69 -5 -76 20 -9 27 10 46 58 57 62 13 67 13 67 -10z"/>
<path d="M16946 6125 c-14 -8 -26 -10 -26 -4 0 5 -11 9 -25 9 l-25 0 0 -135 0
-135 25 0 c25 0 25 1 25 85 0 107 12 135 57 135 31 0 35 4 32 38 -1 16 -38 20
-63 7z"/>
<path d="M17121 6129 c-18 -4 -45 -19 -60 -33 -23 -24 -26 -34 -26 -102 0 -73
1 -77 33 -105 27 -25 41 -29 88 -29 48 0 59 4 85 29 16 16 29 37 29 45 0 25
-40 19 -62 -9 -27 -35 -79 -34 -107 1 -38 48 -30 54 74 54 l95 0 0 38 c0 79
-66 128 -149 111z m83 -61 c29 -41 21 -48 -54 -48 -38 0 -70 3 -70 6 0 11 23
49 34 56 24 16 75 8 90 -14z"/>
<path d="M7070 5995 l0 -135 25 0 25 0 0 135 0 135 -25 0 -25 0 0 -135z"/>
<path d="M8802 6014 c3 -108 5 -117 27 -135 29 -23 98 -25 129 -3 20 14 22 14
22 0 0 -9 9 -16 20 -16 19 0 20 7 20 135 l0 135 -25 0 c-25 0 -25 0 -25 -95 0
-82 -3 -98 -20 -115 -24 -24 -63 -26 -84 -4 -12 12 -16 38 -16 115 l0 99 -26
0 -26 0 4 -116z"/>
<path d="M9970 5994 c0 -135 0 -135 23 -132 21 3 22 7 25 136 l3 132 -26 0
-25 0 0 -136z"/>
<path d="M10070 6110 c0 -17 8 -19 74 -22 l74 -3 -79 -90 c-48 -55 -79 -99
-79 -112 0 -23 2 -23 120 -23 113 0 120 1 120 20 0 18 -7 20 -85 20 -47 0 -85
3 -85 6 0 3 36 47 80 97 44 51 80 100 80 110 0 15 -12 17 -110 17 -103 0 -110
-1 -110 -20z"/>
<path d="M10760 5995 l0 -135 25 0 25 0 0 135 0 135 -25 0 -25 0 0 -135z"/>
<path d="M13476 6118 c4 -7 22 -34 41 -59 18 -26 33 -51 33 -57 0 -6 -21 -41
-46 -77 l-46 -65 31 0 c26 0 36 8 65 51 l34 51 34 -51 c26 -40 39 -51 61 -51
15 0 27 3 27 6 0 3 -21 35 -46 70 l-47 66 42 58 c22 33 41 61 41 65 0 3 -11 5
-25 5 -18 0 -33 -11 -53 -40 -15 -21 -30 -39 -33 -40 -4 0 -18 18 -33 40 -21
32 -32 40 -57 40 -21 0 -28 -4 -23 -12z"/>
<path d="M15480 5995 l0 -135 25 0 25 0 0 135 0 135 -25 0 -25 0 0 -135z"/>
<path d="M16590 6015 c0 -102 2 -117 20 -135 25 -25 95 -27 128 -4 20 14 22
14 22 0 0 -9 9 -16 20 -16 19 0 20 7 20 135 0 125 -1 135 -19 135 -17 0 -19
-10 -23 -94 -5 -110 -20 -139 -72 -134 -43 4 -56 36 -56 141 0 80 -2 87 -20
87 -19 0 -20 -7 -20 -115z"/>
<path d="M12910 5892 c0 -17 6 -32 13 -35 9 -3 9 -10 -2 -30 -19 -36 -4 -48
20 -18 29 35 23 105 -8 109 -20 3 -23 -1 -23 -26z"/>
<path d="M14950 5891 c0 -22 5 -31 16 -31 15 0 15 -2 -1 -26 -20 -31 -8 -51
19 -31 12 9 18 28 19 62 2 48 1 50 -25 53 -25 3 -28 0 -28 -27z"/>
<path d="M17900 5610 l0 -60 -5890 0 -5890 0 0 -30 0 -30 5890 0 5890 0 0 -75
0 -75 175 87 c96 48 171 91 167 94 -10 10 -320 149 -332 149 -6 0 -10 -26 -10
-60z"/>
<path d="M20903 4760 c-26 -11 -43 -40 -43 -74 0 -19 -5 -26 -20 -26 -13 0
-20 -7 -20 -20 0 -13 7 -20 20 -20 19 0 20 -7 20 -115 l0 -115 25 0 25 0 0
115 0 115 25 0 c18 0 25 5 25 20 0 15 -7 20 -25 20 -25 0 -31 13 -19 44 4 10
18 16 35 16 36 0 41 34 7 44 -28 7 -27 7 -55 -4z"/>
<path d="M21505 4725 c-14 -25 -33 -64 -41 -88 -20 -55 -19 -170 1 -227 23
-64 63 -130 80 -130 20 0 19 8 -10 73 -51 116 -51 233 0 344 29 64 30 73 11
73 -8 0 -26 -20 -41 -45z"/>
<path d="M23351 4706 c56 -119 57 -237 2 -359 -14 -31 -23 -60 -20 -63 14 -15
37 9 67 69 59 119 57 243 -6 354 -24 43 -41 63 -54 63 -17 0 -17 -5 11 -64z"/>
<path d="M23040 4575 l0 -185 25 0 c25 0 25 0 25 95 0 82 3 98 20 115 24 24
63 26 84 4 12 -12 16 -38 16 -115 l0 -99 26 0 26 0 -4 115 c-3 100 -6 117 -24
135 -24 24 -88 30 -122 11 -21 -11 -22 -10 -22 49 0 57 -1 60 -25 60 l-25 0 0
-185z"/>
<path d="M19738 4736 c-11 -8 -18 -26 -18 -45 0 -21 -5 -31 -15 -31 -8 0 -15
-9 -15 -20 0 -11 7 -20 15 -20 12 0 15 -17 15 -93 0 -111 12 -137 66 -137 27
0 34 4 34 19 0 12 -9 21 -25 25 -24 6 -25 9 -25 96 l0 90 26 0 c33 0 30 33 -4
38 -19 3 -22 9 -22 48 0 47 -5 51 -32 30z"/>
<path d="M21648 4739 c-12 -6 -18 -22 -18 -44 0 -24 -5 -35 -15 -35 -8 0 -15
-9 -15 -20 0 -11 7 -20 15 -20 12 0 15 -18 15 -103 0 -67 4 -107 12 -115 13
-13 88 -17 88 -4 0 13 -15 28 -32 35 -15 5 -18 20 -18 97 0 83 1 90 20 90 13
0 20 7 20 20 0 13 -7 20 -20 20 -17 0 -20 7 -20 45 0 47 -4 51 -32 34z"/>
<path d="M22928 4739 c-12 -7 -18 -22 -18 -44 0 -28 -4 -35 -20 -35 -13 0 -20
-7 -20 -20 0 -13 7 -20 20 -20 19 0 20 -7 20 -103 0 -114 6 -127 57 -127 25 0
33 4 33 18 0 9 -10 22 -22 27 -21 9 -23 18 -26 98 l-3 87 26 0 c18 0 25 5 25
20 0 15 -7 20 -24 20 -22 0 -25 5 -28 44 -3 39 -5 44 -20 35z"/>
<path d="M19925 4654 c-14 -7 -25 -9 -25 -3 0 5 -9 9 -20 9 -19 0 -20 -7 -20
-135 0 -125 1 -135 19 -135 16 0 19 11 24 96 6 106 16 126 64 128 21 1 29 7
31 22 4 27 -37 37 -73 18z"/>
<path d="M20115 4663 c-45 -9 -73 -26 -84 -49 -15 -33 -15 -34 14 -34 14 0 29
8 35 20 8 15 21 20 48 20 42 0 56 -7 65 -33 8 -21 -16 -33 -87 -42 -87 -12
-123 -78 -71 -130 19 -20 34 -25 72 -25 28 0 58 7 71 16 20 14 23 14 28 0 3
-9 17 -16 31 -16 20 0 24 4 18 18 -3 9 -9 55 -11 102 -7 110 -11 128 -32 138
-23 12 -73 20 -97 15z m80 -170 c-11 -48 -41 -68 -97 -64 -10 0 -22 9 -27 20
-15 28 7 50 59 60 73 14 73 14 65 -16z"/>
<path d="M20397 4655 c-20 -7 -40 -9 -43 -4 -3 5 -14 9 -25 9 -18 0 -19 -8
-19 -135 l0 -135 25 0 c25 0 25 0 25 95 0 107 14 135 68 135 46 0 52 -15 52
-127 l0 -103 25 0 25 0 0 109 c0 100 -2 112 -22 134 -29 32 -64 39 -111 22z"/>
<path d="M20652 4659 c-41 -8 -61 -34 -62 -76 0 -38 22 -56 99 -79 55 -16 71
-35 51 -59 -25 -30 -110 -10 -110 26 0 15 -43 7 -48 -8 -2 -7 10 -26 26 -43
27 -26 38 -30 87 -30 46 0 60 4 80 25 26 25 32 63 15 95 -6 11 -35 26 -68 36
-70 22 -97 41 -81 61 18 21 76 16 93 -8 10 -15 20 -19 35 -14 27 8 27 26 -1
52 -26 24 -69 32 -116 22z"/>
<path d="M21073 4660 c-42 -9 -63 -27 -80 -67 -27 -65 -9 -154 38 -187 15 -10
44 -16 77 -16 46 0 58 4 83 29 16 16 29 37 29 45 0 25 -40 19 -62 -9 -36 -46
-104 -29 -122 33 -7 22 -6 22 95 22 l102 0 -7 41 c-9 53 -40 97 -74 105 -15 3
-31 7 -37 8 -5 1 -25 -1 -42 -4z m79 -57 c10 -9 18 -24 18 -35 0 -16 -8 -18
-65 -18 -54 0 -65 3 -65 17 0 46 74 71 112 36z"/>
<path d="M21345 4654 c-14 -7 -25 -9 -25 -3 0 5 -9 9 -20 9 -19 0 -20 -7 -20
-135 0 -125 1 -135 19 -135 16 0 19 11 24 96 6 106 16 126 64 128 21 1 29 7
31 22 4 27 -37 37 -73 18z"/>
<path d="M21825 4655 c-45 -16 -61 -34 -75 -85 -13 -48 -13 -63 6 -109 21 -52
51 -71 115 -71 45 0 55 4 85 34 32 32 34 38 34 99 0 56 -4 70 -25 96 -23 27
-37 34 -85 46 -8 2 -33 -2 -55 -10z m92 -57 c49 -46 18 -168 -43 -168 -39 0
-61 17 -74 55 -31 95 51 175 117 113z"/>
<path d="M22408 4659 c-42 -6 -73 -30 -81 -60 -7 -26 33 -26 56 1 23 27 92 28
107 1 17 -32 12 -40 -27 -46 -70 -11 -110 -25 -128 -45 -25 -27 -22 -80 6
-102 27 -23 106 -24 137 -2 20 14 23 14 28 0 3 -9 16 -16 28 -16 20 0 21 3 18
107 -2 85 -7 113 -21 133 -20 28 -66 39 -123 29z m92 -157 c0 -47 -60 -89
-105 -72 -39 15 -34 56 8 69 79 24 97 25 97 3z"/>
<path d="M22612 4544 c3 -108 5 -117 27 -135 29 -23 98 -25 129 -3 20 14 22
14 22 0 0 -9 9 -16 20 -16 19 0 20 7 20 135 l0 135 -25 0 c-25 0 -25 0 -25
-95 0 -82 -3 -98 -20 -115 -24 -24 -63 -26 -84 -4 -12 12 -16 38 -16 115 l0
99 -26 0 -26 0 4 -116z"/>
<path d="M22060 4422 c0 -17 6 -32 13 -35 9 -3 9 -10 -2 -30 -19 -36 -4 -48
20 -18 29 35 23 105 -8 109 -20 3 -23 -1 -23 -26z"/>
<path d="M24480 4140 l0 -60 -3035 0 -3035 0 0 -30 0 -30 3035 0 3035 0 0 -75
0 -75 175 87 c96 48 171 91 167 94 -10 10 -320 149 -332 149 -6 0 -10 -26 -10
-60z"/>
<path d="M3940 2375 l0 -185 25 0 c25 0 25 1 25 85 l0 85 85 0 c78 0 85 2 85
20 0 18 -7 20 -85 20 l-85 0 0 55 0 54 98 3 c92 3 97 4 100 26 3 22 2 22 -122
22 l-126 0 0 -185z"/>
<path d="M4240 2535 c0 -20 5 -25 25 -25 20 0 25 5 25 25 0 20 -5 25 -25 25
-20 0 -25 -5 -25 -25z"/>
<path d="M5460 2535 c0 -20 5 -25 25 -25 20 0 25 5 25 25 0 20 -5 25 -25 25
-20 0 -25 -5 -25 -25z"/>
<path d="M5860 2375 l0 -185 25 0 25 0 0 185 0 185 -25 0 -25 0 0 -185z"/>
<path d="M6130 2375 l0 -185 25 0 25 0 0 185 0 185 -25 0 -25 0 0 -185z"/>
<path d="M6940 2535 c0 -20 5 -25 25 -25 20 0 25 5 25 25 0 20 -5 25 -25 25
-20 0 -25 -5 -25 -25z"/>
<path d="M7620 2535 c0 -20 5 -25 25 -25 20 0 25 5 25 25 0 20 -5 25 -25 25
-20 0 -25 -5 -25 -25z"/>
<path d="M17716 2428 c65 -248 62 -240 91 -236 25 3 29 11 68 153 49 172 42
174 96 -27 32 -121 35 -128 59 -128 24 0 27 7 73 173 26 95 47 178 47 185 0 7
-10 12 -23 12 -21 0 -26 -10 -57 -140 -19 -77 -38 -140 -42 -140 -4 0 -8 8 -8
18 0 9 -15 71 -34 137 l-33 120 -33 0 -33 0 -41 -144 c-26 -95 -42 -137 -46
-125 -4 10 -20 76 -35 147 -29 124 -30 127 -56 127 l-28 0 35 -132z"/>
<path d="M18460 2375 c0 -178 1 -185 20 -185 19 0 20 7 20 185 0 178 -1 185
-20 185 -19 0 -20 -7 -20 -185z"/>
<path d="M18570 2375 l0 -185 25 0 25 0 0 185 0 185 -25 0 -25 0 0 -185z"/>
<path d="M23520 2375 l0 -185 116 0 c114 0 115 0 112 23 -3 21 -8 22 -90 25
l-88 3 0 159 0 160 -25 0 -25 0 0 -185z"/>
<path d="M24250 2500 c0 -60 -6 -70 -27 -49 -14 14 -75 14 -102 0 -70 -38 -73
-201 -5 -246 27 -17 86 -20 115 -5 13 7 19 7 19 0 0 -5 11 -10 25 -10 l25 0 0
185 0 185 -25 0 c-24 0 -25 -3 -25 -60z m-21 -106 c46 -58 14 -164 -49 -164
-39 0 -63 38 -63 95 0 87 66 128 112 69z"/>
<path d="M25250 2375 l0 -185 25 0 24 0 3 138 3 137 93 -137 c77 -115 96 -138
117 -138 l25 0 0 185 0 185 -25 0 -25 0 0 -137 0 -138 -92 138 c-81 123 -94
137 -119 137 l-29 0 0 -185z"/>
<path d="M26070 2500 c0 -60 -6 -70 -27 -49 -14 14 -75 14 -102 0 -70 -38 -73
-201 -5 -246 27 -17 86 -20 115 -5 13 7 19 7 19 0 0 -5 11 -10 25 -10 l25 0 0
185 0 185 -25 0 c-24 0 -25 -3 -25 -60z m-21 -106 c46 -58 14 -164 -49 -164
-39 0 -63 38 -63 95 0 87 66 128 112 69z"/>
<path d="M6828 2539 c-12 -7 -18 -22 -18 -44 0 -28 -4 -35 -20 -35 -13 0 -20
-7 -20 -20 0 -13 7 -20 20 -20 19 0 20 -7 20 -103 0 -114 6 -127 57 -127 25 0
33 4 33 18 0 9 -10 22 -22 27 -21 9 -23 18 -26 98 l-3 87 26 0 c18 0 25 5 25
20 0 15 -7 20 -24 20 -22 0 -25 5 -28 44 -3 39 -5 44 -20 35z"/>
<path d="M7078 2536 c-11 -8 -18 -26 -18 -45 0 -21 -5 -31 -15 -31 -8 0 -15
-9 -15 -20 0 -11 7 -20 15 -20 12 0 15 -18 15 -99 0 -113 9 -131 66 -131 41 0
47 26 9 40 -24 9 -25 13 -25 100 0 83 1 90 20 90 13 0 20 7 20 20 0 13 -7 20
-20 20 -17 0 -20 7 -20 45 0 48 -5 52 -32 31z"/>
<path d="M7508 2539 c-12 -6 -18 -22 -18 -44 0 -24 -5 -35 -15 -35 -8 0 -15
-9 -15 -20 0 -11 7 -20 15 -20 12 0 15 -18 15 -103 0 -67 4 -107 12 -115 13
-13 88 -17 88 -4 0 13 -15 28 -32 35 -15 5 -18 20 -18 97 0 83 1 90 20 90 13
0 20 7 20 20 0 13 -7 20 -20 20 -17 0 -20 7 -20 45 0 47 -4 51 -32 34z"/>
<path d="M18998 2539 c-12 -6 -18 -22 -18 -44 0 -24 -5 -35 -15 -35 -8 0 -15
-9 -15 -20 0 -11 7 -20 15 -20 12 0 15 -18 15 -103 0 -67 4 -107 12 -115 13
-13 88 -17 88 -4 0 13 -15 28 -32 35 -15 5 -18 20 -18 97 0 83 1 90 20 90 13
0 20 7 20 20 0 13 -7 20 -20 20 -17 0 -20 7 -20 45 0 47 -4 51 -32 34z"/>
<path d="M4455 2463 c-11 -3 -28 -12 -37 -21 -16 -14 -18 -14 -18 1 0 11 -8
17 -25 17 l-26 0 3 -132 c3 -127 4 -133 25 -136 20 -3 21 1 25 91 3 106 19
137 68 137 43 0 53 -22 58 -130 4 -89 7 -100 23 -100 17 0 19 9 19 115 0 102
-2 117 -20 135 -11 11 -26 20 -34 20 -8 0 -20 2 -28 4 -7 2 -22 1 -33 -1z"/>
<path d="M4725 2463 c-45 -9 -73 -26 -84 -49 -15 -33 -15 -34 14 -34 14 0 29
8 35 20 8 15 21 20 48 20 42 0 56 -7 65 -33 8 -21 -16 -33 -87 -42 -87 -12
-123 -78 -71 -130 19 -20 34 -25 72 -25 28 0 58 7 71 16 20 14 23 14 28 0 3
-9 17 -16 31 -16 20 0 24 4 18 18 -3 9 -9 55 -11 102 -7 110 -11 128 -32 138
-23 12 -73 20 -97 15z m80 -170 c-11 -48 -41 -68 -97 -64 -10 0 -22 9 -27 20
-15 28 7 50 59 60 73 14 73 14 65 -16z"/>
<path d="M5007 2455 c-20 -7 -40 -9 -43 -4 -3 5 -14 9 -25 9 -18 0 -19 -8 -19
-135 l0 -135 25 0 c25 0 25 0 25 95 0 107 14 135 68 135 46 0 52 -15 52 -127
l0 -103 25 0 25 0 0 109 c0 100 -2 112 -22 134 -29 32 -64 39 -111 22z"/>
<path d="M5305 2464 c-5 -1 -22 -5 -37 -8 -77 -17 -99 -176 -33 -242 36 -36
114 -34 154 4 16 15 32 37 36 50 10 36 -36 30 -57 -8 -23 -41 -79 -43 -104 -4
-22 33 -22 105 0 139 14 21 24 26 53 23 32 -3 41 -9 60 -46 4 -9 43 11 43 21
-1 36 -74 81 -115 71z"/>
<path d="M5653 2463 c-35 -5 -83 -44 -83 -68 0 -22 43 -19 58 5 14 23 80 28
100 8 24 -24 14 -47 -25 -53 -111 -19 -143 -41 -143 -95 0 -45 33 -70 93 -70
30 0 62 6 74 15 19 13 22 13 27 0 3 -8 17 -15 30 -15 23 0 25 2 16 26 -6 14
-10 66 -10 115 0 76 -3 92 -20 109 -11 11 -29 20 -39 20 -11 0 -25 2 -33 3 -7
2 -27 2 -45 0z m87 -164 c0 -33 -17 -56 -51 -68 -26 -9 -37 -8 -56 4 -54 35
-16 67 100 84 4 1 7 -8 7 -20z"/>
<path d="M6360 2462 c-14 -2 -33 -11 -42 -19 -16 -15 -18 -15 -18 0 0 10 -8
17 -20 17 -19 0 -20 -7 -20 -136 0 -135 0 -135 23 -132 21 3 22 8 25 98 3 105
15 130 63 130 46 0 59 -31 59 -137 0 -93 0 -93 25 -93 25 0 25 1 25 88 0 88
-13 156 -31 167 -19 12 -64 21 -89 17z"/>
<path d="M6600 2459 c-59 -13 -88 -70 -55 -112 7 -10 42 -27 76 -38 69 -22 83
-34 68 -61 -16 -29 -84 -25 -105 7 -20 31 -54 34 -54 5 0 -12 11 -32 25 -45
20 -21 34 -25 80 -25 49 0 60 4 86 29 54 55 28 103 -72 135 -50 17 -64 25 -64
41 0 16 8 21 42 23 33 2 44 -1 56 -18 19 -28 58 -20 50 10 -11 40 -71 62 -133
49z"/>
<path d="M7812 2459 c-66 -14 -98 -72 -89 -162 3 -41 11 -56 36 -79 58 -52
168 -31 197 37 26 62 12 150 -29 183 -23 20 -77 29 -115 21z m83 -59 c27 -30
30 -99 6 -137 -27 -44 -79 -46 -110 -7 -48 61 -14 164 53 164 20 0 40 -8 51
-20z"/>
<path d="M8116 2459 c-15 -4 -34 -13 -42 -20 -11 -9 -14 -8 -14 5 0 9 -8 16
-20 16 -19 0 -20 -7 -20 -135 l0 -135 25 0 c25 0 25 0 25 95 0 82 3 98 20 115
24 24 63 26 84 4 12 -12 16 -38 16 -115 l0 -99 26 0 26 0 -4 114 c-2 93 -6
118 -21 134 -21 23 -61 31 -101 21z"/>
<path d="M18253 2463 c-35 -5 -83 -44 -83 -68 0 -22 43 -19 58 5 14 23 80 28
100 8 24 -24 14 -47 -25 -53 -111 -19 -143 -41 -143 -95 0 -45 33 -70 93 -70
30 0 62 6 74 15 19 13 22 13 27 0 3 -8 17 -15 30 -15 23 0 25 2 16 26 -6 14
-10 66 -10 115 0 76 -3 92 -20 109 -11 11 -29 20 -39 20 -11 0 -25 2 -33 3 -7
2 -27 2 -45 0z m87 -164 c0 -33 -17 -56 -51 -68 -26 -9 -37 -8 -56 4 -54 35
-16 67 100 84 4 1 7 -8 7 -20z"/>
<path d="M18763 2460 c-42 -9 -63 -27 -80 -67 -27 -65 -9 -154 38 -187 15 -10
44 -16 77 -16 46 0 58 4 83 29 16 16 29 37 29 45 0 25 -40 19 -62 -9 -36 -46
-104 -29 -122 33 -7 22 -6 22 95 22 l102 0 -7 41 c-9 53 -40 97 -74 105 -15 3
-31 7 -37 8 -5 1 -25 -1 -42 -4z m79 -57 c10 -9 18 -24 18 -35 0 -16 -8 -18
-65 -18 -54 0 -65 3 -65 17 0 46 74 71 112 36z"/>
<path d="M23873 2459 c-44 -9 -59 -23 -79 -74 -23 -61 -12 -128 26 -167 24
-23 37 -28 79 -28 62 0 93 13 114 49 27 47 -14 59 -51 16 -37 -43 -101 -30
-120 25 l-11 30 100 0 99 0 0 25 c0 33 -22 86 -43 103 -23 20 -77 29 -114 21z
m86 -65 c11 -15 18 -30 15 -35 -3 -5 -34 -9 -70 -9 -53 0 -64 3 -64 17 0 53
83 72 119 27z"/>
<path d="M24439 2462 c-15 -2 -39 -16 -55 -33 -35 -37 -46 -127 -20 -177 28
-54 88 -73 149 -47 14 6 17 2 17 -18 0 -29 -23 -56 -48 -58 -38 -3 -58 3 -71
22 -17 24 -51 25 -51 2 2 -74 147 -93 199 -26 19 23 21 40 21 179 0 147 -1
154 -20 154 -11 0 -20 -5 -20 -11 0 -5 -5 -7 -10 -4 -19 12 -65 21 -91 17z
m81 -74 c34 -56 19 -128 -30 -148 -53 -22 -90 16 -90 92 0 85 80 122 120 56z"/>
<path d="M24723 2459 c-41 -12 -83 -62 -84 -102 -4 -124 29 -167 130 -167 54
0 97 27 103 65 5 31 -35 32 -56 1 -12 -19 -25 -26 -49 -26 -36 0 -77 34 -77
63 0 15 13 17 95 17 l95 0 0 33 c-1 82 -76 138 -157 116z m87 -59 c38 -38 27
-50 -50 -50 -56 0 -70 3 -70 15 0 25 38 55 70 55 17 0 39 -9 50 -20z"/>
<path d="M25006 2454 c-14 -7 -26 -9 -26 -3 0 5 -11 9 -25 9 l-26 0 3 -132 c3
-127 4 -133 24 -136 20 -3 22 2 26 91 4 105 15 127 58 127 27 0 46 22 35 40
-9 15 -44 18 -69 4z"/>
<path d="M25692 2459 c-66 -14 -98 -72 -89 -162 3 -41 11 -56 36 -79 58 -52
168 -31 197 37 26 62 12 150 -29 183 -23 20 -77 29 -115 21z m83 -59 c27 -30
30 -99 6 -137 -27 -44 -79 -46 -110 -7 -48 61 -14 164 53 164 20 0 40 -8 51
-20z"/>
<path d="M26263 2460 c-42 -9 -63 -27 -80 -67 -27 -65 -9 -154 38 -187 15 -10
44 -16 77 -16 46 0 58 4 83 29 16 16 29 37 29 45 0 25 -40 19 -62 -9 -36 -46
-104 -29 -122 33 -7 22 -6 22 95 22 l102 0 -7 41 c-9 53 -40 97 -74 105 -15 3
-31 7 -37 8 -5 1 -25 -1 -42 -4z m79 -57 c10 -9 18 -24 18 -35 0 -16 -8 -18
-65 -18 -54 0 -65 3 -65 17 0 46 74 71 112 36z"/>
<path d="M4240 2325 l0 -135 25 0 25 0 0 135 0 135 -25 0 -25 0 0 -135z"/>
<path d="M5460 2325 l0 -135 25 0 25 0 0 135 0 135 -25 0 -25 0 0 -135z"/>
<path d="M6940 2325 l0 -135 25 0 25 0 0 135 0 135 -25 0 -25 0 0 -135z"/>
<path d="M7190 2366 c0 -101 12 -151 40 -166 28 -15 93 -12 118 6 20 14 22 14
22 0 0 -9 9 -16 20 -16 19 0 20 7 20 135 l0 135 -25 0 c-25 0 -25 0 -25 -95 0
-82 -3 -98 -20 -115 -27 -27 -65 -26 -84 2 -12 16 -16 47 -16 115 0 93 0 93
-25 93 -25 0 -25 0 -25 -94z"/>
<path d="M7620 2325 l0 -135 25 0 25 0 0 135 0 135 -25 0 -25 0 0 -135z"/>
<path d="M0 10 c0 -7 4833 -10 14480 -10 9647 0 14480 3 14480 10 0 7 -4833
10 -14480 10 -9647 0 -14480 -3 -14480 -10z"/>
</g>
</svg>
